<?xml version="1.0" standalone="no"?><!DOCTYPE svg PUBLIC "-//W3C//DTD SVG 1.1//EN" "http://www.w3.org/Graphics/SVG/1.1/DTD/svg11.dtd"><svg t="1484222822890" class="icon" style="" viewBox="0 0 1024 1024" version="1.1" xmlns="http://www.w3.org/2000/svg" p-id="17892" xmlns:xlink="http://www.w3.org/1999/xlink" width="200" height="200"><defs><style type="text/css"></style></defs><path d="M60.961932 509.769192c0 118.826316 96.328929 215.153198 215.155245 215.153198 4.9088 0 9.776667-0.178055 14.603603-0.503467L741.000066 724.418924c4.826935 0.325411 9.694803 0.503467 14.603603 0.503467 118.827339 0 215.155245-96.326882 215.155245-215.153198s-96.327906-215.154221-215.155245-215.154221c-4.91494 0-9.785877 0.180102-14.618952 0.50449L290.736129 295.119461c-4.833075-0.324388-9.705036-0.50449-14.618952-0.50449C157.290861 294.614971 60.961932 390.942877 60.961932 509.769192zM554.171983 509.769192c0-101.728916 82.467223-184.195116 184.195116-184.195116s184.195116 82.4662 184.195116 184.195116-82.467223 184.195116-184.195116 184.195116S554.171983 611.498108 554.171983 509.769192z" p-id="17893" fill="#1afa29"></path></svg>