<?xml version="1.0" standalone="no"?><!DOCTYPE svg PUBLIC "-//W3C//DTD SVG 1.1//EN" "http://www.w3.org/Graphics/SVG/1.1/DTD/svg11.dtd"><svg t="1488349700050" class="icon" style="" viewBox="0 0 1024 1024" version="1.1" xmlns="http://www.w3.org/2000/svg" p-id="2045" xmlns:xlink="http://www.w3.org/1999/xlink" width="200" height="200"><defs><style type="text/css"></style></defs><path d="M959.230038 458.007455c0-35.696738-37.687171-64.91433-83.805014-64.914329h-18.61833v-64.599997c0-26.721359-19.042219-49.200762-44.234918-54.601757v-35.46534L625.345129 54.174796H211.965764V273.892396c-25.193722 5.400995-44.234918 27.880397-44.234918 54.601757v64.599996H149.111492c-46.117843 0-83.805014 29.217592-83.805014 64.91433v257.417057c0 46.117843 37.687171 83.805014 83.805014 83.805014h62.854272v147.96986h600.604988V799.23055h62.854272c46.117843 0 83.805014-37.687171 83.805014-83.805014V458.007455zM746.320252 232.0032H624.649911V112.254691l121.670341 119.748509zM582.747404 110.045147v163.86056h173.954021V393.093126H267.836114V110.045147H582.747404z m173.952998 781.284912h-488.864288V662.310461h488.865311v229.019598z m118.724622-161.937703h-62.854272V606.440111H211.965764v122.952245H149.111492c-7.597229 0-13.967844-6.35628-13.967844-13.967844V521.97981h754.24922v193.444702c0 7.611564-6.370614 13.967844-13.967844 13.967844z" fill="#53BCE8" p-id="2046"></path></svg>