<?xml version="1.0" standalone="no"?><!DOCTYPE svg PUBLIC "-//W3C//DTD SVG 1.1//EN" "http://www.w3.org/Graphics/SVG/1.1/DTD/svg11.dtd"><svg t="1484292240366" class="icon" style="" viewBox="0 0 1024 1024" version="1.1" xmlns="http://www.w3.org/2000/svg" p-id="6163" xmlns:xlink="http://www.w3.org/1999/xlink" width="200" height="200"><defs><style type="text/css"></style></defs><path d="M102.394065 340.936973l118.312616 0c11.413957 0 20.665669-9.252735 20.665669-20.665669 0-11.413957-9.252735-20.665669-20.665669-20.665669L102.394065 299.605635c-11.413957 0-20.665669 9.252735-20.665669 20.665669C81.728396 331.684238 90.981131 340.936973 102.394065 340.936973z" p-id="6164" fill="#707070"></path><path d="M220.706681 491.533876 102.394065 491.533876c-11.413957 0-20.665669 9.252735-20.665669 20.665669 0 11.413957 9.252735 20.665669 20.665669 20.665669l118.312616 0c11.413957 0 20.665669-9.252735 20.665669-20.665669C241.37235 500.786611 232.120638 491.533876 220.706681 491.533876z" p-id="6165" fill="#707070"></path><path d="M220.706681 682.751942 102.394065 682.751942c-11.413957 0-20.665669 9.252735-20.665669 20.665669 0 11.413957 9.252735 20.665669 20.665669 20.665669l118.312616 0c11.413957 0 20.665669-9.252735 20.665669-20.665669C241.37235 692.004677 232.120638 682.751942 220.706681 682.751942z" p-id="6166" fill="#707070"></path><path d="M851.711052 64.639183 237.683331 64.639183c-50.864458 0-92.097558 41.2331-92.097558 92.097558l0 67.650773 41.962717 0L187.54849 167.600159c0-39.561018 21.837354-61.398372 61.398372-61.398372l592.458473 0c39.561018 0 61.398372 21.837354 61.398372 61.398372l0 689.155792c0 39.561018-21.837354 61.398372-61.398372 61.398372L248.946862 918.154323c-39.561018 0-61.398372-21.837354-61.398372-61.398372l0-56.787354-41.962717 0 0 66.583464c0 50.864458 41.2331 92.097558 92.097558 92.097558l614.027721 0c50.864458 0 92.097558-41.2331 92.097558-92.097558L943.80861 156.73674C943.80861 105.873306 902.57551 64.639183 851.711052 64.639183z" p-id="6167" fill="#707070"></path><path d="M630.350478 616.266715c53.498448-30.051433 89.955778-86.783529 89.955778-152.514579 0-96.986915-78.621639-175.609577-175.608553-175.609577s-175.609577 78.621639-175.609577 175.609577c0 65.87022 36.612872 122.701576 90.296539 152.702867-51.715849 22.330588-103.228059 64.247256-124.715443 116.409267l44.617174 0c28.569686-53.841256 94.496188-91.082438 159.102624-93.500511 2.089591-0.001023 4.191462-0.002047 6.308683-0.002047 2.381234 0 4.747117 0.001023 7.094582 0.00307 64.60439 2.421142 130.525776 39.661302 159.094438 93.500511l44.617174 0C733.955114 680.554904 682.270988 638.549208 630.350478 616.266715zM409.715429 463.751113c0-74.54581 60.436464-134.982274 134.982274-134.982274 74.54888 0 134.982274 60.436464 134.982274 134.982274 0 74.54888-60.433394 134.982274-134.982274 134.982274C470.15087 598.733387 409.715429 538.299993 409.715429 463.751113z" p-id="6168" fill="#707070"></path></svg>