<?xml version="1.0" standalone="no"?><!DOCTYPE svg PUBLIC "-//W3C//DTD SVG 1.1//EN" "http://www.w3.org/Graphics/SVG/1.1/DTD/svg11.dtd"><svg t="1493782790760" class="icon" style="" viewBox="0 0 1024 1024" version="1.1" xmlns="http://www.w3.org/2000/svg" p-id="1031" xmlns:xlink="http://www.w3.org/1999/xlink" width="200" height="200"><defs><style type="text/css"></style></defs><path d="M259.828188 957.496353c-36.983309 0.002047-66.718541-10.606569-88.676645-22.789029-39.828101-22.095227-61.871139-53.373605-66.605977-60.595076-29.212322-35.18536-42.193984-79.233576-37.555337-127.483486 3.474125-36.131919 15.722076-62.176085 16.241916-63.266929l1.178848-2.475378 112.041796-130.10622 31.016411 26.710338L119.23308 703.178157c-2.558265 6.198166-9.520841 24.845874-11.618619 48.674583-3.304256 37.508265 6.485715 70.116941 29.097712 96.91733l1.00898 1.196245 0.815575 1.336438c0.138146 0.220011 18.47784 29.267581 53.936423 48.413639 45.698808 24.674982 98.549503 22.451338 157.142993-6.599301L612.611977 595.137489c5.461385-16.211217 26.369577-94.033653-53.225225-148.188041l23.026436-33.841759c60.015885 40.835034 75.1557 93.15668 77.28827 129.857557 2.288113 39.375799-9.739828 69.316715-10.253528 70.572312l-1.308808 3.203971-273.014001 309.330114-3.454682 1.768274c-42.453904 21.717627-79.859839 29.655414-111.842251 29.656436z" fill="#47BDFF" p-id="1032"></path><path d="M441.396477 607.14701c-59.957557-40.878013-75.098395-93.196589-77.242222-129.888255-2.300392-39.370683 9.704013-69.297272 10.215666-70.551846l1.309832-3.209089L648.670218 94.163613l3.456728-1.768273c91.555206-46.829562 159.594835-29.601178 200.550619-6.900154 39.845497 22.083971 61.896722 53.355185 66.629513 60.567448 29.213345 35.187407 42.191938 79.247902 37.543058 127.518278-3.482311 36.143175-15.738449 62.200644-16.258289 63.291489l-1.175779 2.468214-111.918999 130.161479-31.036877-26.686803 108.129696-125.752052c2.556219-6.194072 9.531074-24.861224 11.637038-48.713468 3.312442-37.526685-6.471388-70.142523-29.083385-96.942913l-1.00591-1.193175-0.814552-1.332345c-0.138146-0.220011-18.48398-29.253254-53.952796-48.38601-45.716204-24.661679-98.583273-22.428825-157.190065 6.623861L411.215084 425.091628c-5.453199 16.220427-26.293853 94.009094 53.239552 148.235112l-23.058159 33.82027z" fill="#47BDFF" p-id="1033"></path></svg>