<?xml version="1.0" standalone="no"?><!DOCTYPE svg PUBLIC "-//W3C//DTD SVG 1.1//EN" "http://www.w3.org/Graphics/SVG/1.1/DTD/svg11.dtd"><svg t="1488192909369" class="icon" style="" viewBox="0 0 1024 1024" version="1.1" xmlns="http://www.w3.org/2000/svg" p-id="2043" xmlns:xlink="http://www.w3.org/1999/xlink" width="200" height="200"><defs><style type="text/css"></style></defs><path d="M283.507494 438.575734l0.51677 0.51677 202.976878-202.732307-37.037545-37.010939L283.507494 365.641631l-74.049506-73.968665-37.025265 36.984333 110.558002 110.436228L283.507494 438.575734zM465.735815 543.001061 196.53977 543.001061c-13.311167 0-24.108071 10.79588-24.108071 24.093744l0 268.896216c0 13.297864 10.796904 24.093744 24.108071 24.093744l269.195022 0c13.311167 0 24.108071-10.79588 24.108071-24.093744L489.842863 567.094806C489.842863 553.796942 479.046982 543.001061 465.735815 543.001061zM437.888584 810.048163 224.387002 810.048163 224.387002 593.037664l213.501582 0L437.888584 810.048163zM827.47251 543.001061 558.276465 543.001061c-13.32447 0-24.108071 10.79588-24.108071 24.093744l0 268.896216c0 13.297864 10.782577 24.093744 24.108071 24.093744l269.195022 0c13.311167 0 24.093744-10.79588 24.093744-24.093744L851.565231 567.094806C851.58058 553.796942 840.79698 543.001061 827.47251 543.001061zM799.625278 810.048163 586.123696 810.048163 586.123696 593.037664 799.625278 593.037664 799.625278 810.048163zM827.47251 163.91421 558.276465 163.91421c-13.32447 0-24.108071 10.768251-24.108071 24.067138l0 268.922822c0 13.297864 10.782577 24.067138 24.108071 24.067138l269.195022 0c13.311167 0 24.093744-10.768251 24.093744-24.067138L851.565231 187.981349C851.58058 174.683485 840.79698 163.91421 827.47251 163.91421zM799.625278 430.961312 586.123696 430.961312 586.123696 213.924207 799.625278 213.924207 799.625278 430.961312z" p-id="2044" fill="#3399ff"></path></svg>