<?xml version="1.0" standalone="no"?><!DOCTYPE svg PUBLIC "-//W3C//DTD SVG 1.1//EN" "http://www.w3.org/Graphics/SVG/1.1/DTD/svg11.dtd"><svg t="1484122146698" class="icon" style="" viewBox="0 0 1024 1024" version="1.1" xmlns="http://www.w3.org/2000/svg" p-id="17750" xmlns:xlink="http://www.w3.org/1999/xlink" width="200" height="200"><defs><style type="text/css"></style></defs><path d="M512 1024C229.2288 1024 0 794.7712 0 512.0064 0 229.2288 229.2288 0 512 0 794.7648 0 1024 229.2288 1024 512.0064 1024 794.7712 794.7648 1024 512 1024L512 1024ZM750.9312 738.1376 750.9312 667.744 750.9312 667.2C750.9312 667.0848 750.9056 666.9824 750.9056 666.8608 750.2976 629.3312 710.9056 556.3264 593.1584 535.0464 636.4224 509.9392 665.6 463.2256 665.6 409.6064 665.6 329.4912 600.6528 264.5312 520.5376 264.5312 440.416 264.5312 375.4688 329.4912 375.4688 409.6064 375.4688 463.4048 404.832 510.2592 448.3392 535.3088 339.2064 554.5088 292.0896 614.8928 283.2064 657.0432 282.2592 660.288 281.6 663.6416 281.6 667.2L281.6 671.5008 281.6 712.5376 281.6 738.1312 281.6 746.6624C281.6 753.7344 287.328 759.4624 294.3936 759.4624L302.9312 759.4624C310.0032 759.4624 315.7312 753.7344 315.7312 746.6624L315.7312 738.1312 315.7312 712.5376 315.7312 682.6688 317.3056 682.7008C327.6224 620.4416 394.4576 563.2 517.024 563.2 650.2272 563.2 711.4368 625.7408 716.32 691.1936L716.7936 691.1936 716.7936 738.1312 716.7936 746.6624C716.7936 753.7344 722.528 759.4624 729.5936 759.4624L738.1312 759.4624C745.1904 759.4624 750.9312 753.728 750.9312 746.6624L750.9312 738.1376 750.9312 738.1376ZM409.6 409.6C409.6 348.3392 459.264 298.6688 520.5376 298.6688 581.7984 298.6688 631.4688 348.3392 631.4688 409.6 631.4688 470.8736 581.7984 520.5312 520.5376 520.5312 459.264 520.5312 409.6 470.8736 409.6 409.6L409.6 409.6Z" p-id="17751" fill="#707070"></path></svg>