<?xml version="1.0" standalone="no"?><!DOCTYPE svg PUBLIC "-//W3C//DTD SVG 1.1//EN" "http://www.w3.org/Graphics/SVG/1.1/DTD/svg11.dtd"><svg t="1484123275748" class="icon" style="" viewBox="0 0 1024 1024" version="1.1" xmlns="http://www.w3.org/2000/svg" p-id="20271" xmlns:xlink="http://www.w3.org/1999/xlink" width="200" height="200"><defs><style type="text/css"></style></defs><path d="M512.841158 665.253406c-83.628676 0-151.655002-69.694315-151.655002-155.358347 0-85.669148 68.026326-155.354254 151.655002-155.354254 83.626629 0 151.664212 69.685105 151.664212 155.354254 0 8.567119-0.871857 17.389042-2.712785 27.750017-2.13871 12.063757-13.428847 20.070104-25.226544 17.879206-11.777231-2.212388-19.59222-13.776771-17.433044-25.842575 1.356904-7.670703 1.990331-13.950733 1.990331-19.786649 0-61.160965-48.571229-110.915136-108.281145-110.915136-59.700707 0-108.275006 49.754171-108.275006 110.915136 0 61.165058 48.573275 110.921275 108.275006 110.921275 5.685489 0 11.841699-0.649799 19.338441-2.040473 11.818163-2.297322 23.067368 5.792936 25.206078 17.881253 2.159176 12.063757-5.655813 23.630187-17.453511 25.824155C529.806551 664.36313 521.204639 665.253406 512.841158 665.253406z" p-id="20272" fill="#707070"></path><path d="M370.401028 951.567317c-2.393513 0-4.797259-0.409322-7.126304-1.235131-54.592362-19.464307-104.387465-48.934502-148.013055-87.554078-6.492878-5.774517-9.055237-14.904455-6.556323-23.302729 14.234189-47.717791 8.746198-97.645924-15.442714-140.584875-24.211425-42.963511-63.73458-72.798003-111.280456-84.022649-8.389064-1.973958-14.83794-8.846482-16.448624-17.503653-5.485945-29.5582-8.256034-58.991556-8.256034-87.470167 0-28.482705 2.77009-57.914014 8.256034-87.467097 1.610684-8.659217 8.05956-15.540951 16.448624-17.514909 47.53462-11.205203 87.048565-41.039695 111.271246-84.022649 24.197098-42.924625 29.686113-92.852758 15.439644-140.579759-2.509147-8.416693 0.068562-17.551748 6.556323-23.300682 43.62252-38.645159 93.431949-68.102051 148.024312-87.554078 8.118911-2.899026 17.133216-0.618077 22.991644 5.824659 33.233915 36.498262 78.181617 56.601112 126.57479 56.601112 48.378847 0 93.328595-20.10285 126.562511-56.601112 5.867638-6.456039 14.891152-8.723685 22.980387-5.824659 54.631248 19.453051 104.428398 48.909943 148.042731 87.542822 6.483668 5.748934 9.06854 14.883989 6.545066 23.305799-14.234189 47.715745-8.746198 97.643877 15.442714 140.586922 24.211425 42.98193 63.738673 72.816422 111.313202 84.022649 8.391111 1.973958 14.826684 8.855692 16.437367 17.522072 5.485945 29.610388 8.263198 59.046814 8.263198 87.460957 0 28.414143-2.777253 57.848523-8.263198 87.470167-1.610684 8.65717-8.046257 15.529695-16.437367 17.503653-47.573505 11.19804-87.101777 41.058115-111.313202 84.022649-24.187889 42.938951-29.676903 92.889597-15.46318 140.605342 2.521426 8.416693-0.061398 17.555841-6.540973 23.304775-43.661406 38.623669-93.438089 68.087725-148.003845 87.531566-8.157797 2.862187-17.135262 0.629333-23.0029-5.835915-33.233915-36.501332-78.183663-56.591903-126.562511-56.591903-48.393173 0-93.339852 20.090571-126.57479 56.591903C382.082068 949.096033 376.310621 951.567317 370.401028 951.567317zM254.005065 838.042751c33.43346 27.707039 70.620407 49.710169 110.843504 65.571415 40.026622-38.381146 93.171006-60.146868 147.992589-60.146868 55.688323 0 107.686604 21.24179 147.996682 60.126402 40.209794-15.84078 77.401858-37.84391 110.848621-65.550948-12.431124-54.68446-4.239558-112.724341 23.152303-161.373341 27.432793-48.691979 72.464405-84.971253 125.038808-101.269451 3.432169-22.239514 5.167696-44.212968 5.167696-65.5049 0-21.301142-1.736551-43.277666-5.167696-65.521273-52.55189-16.283872-97.586572-52.574403-125.038808-101.267405-27.409257-48.646953-35.583426-106.691951-23.128767-161.364131-33.428344-27.716248-70.622454-49.710169-110.871133-65.558112-40.310078 38.891775-92.308359 60.135612-147.996682 60.135612-54.821583 0-107.975177-21.754466-147.992589-60.146868-40.23026 15.852036-77.428464 37.85312-110.86704 65.584718 12.44545 54.688553 4.257977 112.722294-23.163559 161.347758-27.438932 48.691979-72.462359 84.98251-124.984572 101.267405-3.443425 22.197558-5.179976 44.179199-5.179976 65.521273 0 21.337981 1.736551 43.309388 5.179976 65.5049 52.54268 16.298198 97.566106 52.577472 125.005039 101.269451C258.674411 726.077703 266.722714 782.861988 254.005065 838.042751z" p-id="20273" fill="#707070"></path></svg>