<?xml version="1.0" standalone="no"?><!DOCTYPE svg PUBLIC "-//W3C//DTD SVG 1.1//EN" "http://www.w3.org/Graphics/SVG/1.1/DTD/svg11.dtd"><svg t="1494829999240" class="icon" style="" viewBox="0 0 1024 1024" version="1.1" xmlns="http://www.w3.org/2000/svg" p-id="5043" xmlns:xlink="http://www.w3.org/1999/xlink" width="200" height="200"><defs><style type="text/css"></style></defs><path d="M481.056582 482.158158 115.985067 482.158158 115.985067 117.058715l365.071515 0L481.056582 482.158158zM176.314182 421.829042l244.413285 0L420.727467 177.38783 176.314182 177.38783 176.314182 421.829042z" p-id="5044" fill="#8a8a8a"></path><path d="M481.056582 906.938182 115.985067 906.938182 115.985067 541.903903l365.071515 0L481.056582 906.938182zM176.314182 846.61217l244.413285 0 0-244.382255L176.314182 602.229915 176.314182 846.61217z" p-id="5045" fill="#8a8a8a"></path><path d="M546.893576 155.706958l361.121358 0 0 60.329115-361.121358 0 0-60.329115Z" p-id="5046" fill="#8a8a8a"></path><path d="M546.893576 383.1808l361.121358 0 0 60.329115-361.121358 0 0-60.329115Z" p-id="5047" fill="#8a8a8a"></path><path d="M546.893576 580.719709l361.121358 0 0 60.332218-361.121358 0 0-60.332218Z" p-id="5048" fill="#8a8a8a"></path><path d="M546.893576 807.842909l361.121358 0 0 60.326012-361.121358 0 0-60.326012Z" p-id="5049" fill="#8a8a8a"></path></svg>