<?xml version="1.0" standalone="no"?><!DOCTYPE svg PUBLIC "-//W3C//DTD SVG 1.1//EN" "http://www.w3.org/Graphics/SVG/1.1/DTD/svg11.dtd"><svg t="1494836162030" class="icon" style="" viewBox="0 0 1024 1024" version="1.1" xmlns="http://www.w3.org/2000/svg" p-id="1773" xmlns:xlink="http://www.w3.org/1999/xlink" width="200" height="200"><defs><style type="text/css"></style></defs><path d="M328.704 641.024H223.744c-25.6 0-46.592 20.992-46.592 46.08v190.464c0 25.6 20.992 46.592 46.592 46.592h104.96c25.6 0 46.592-20.992 46.592-46.08v-190.464c0-25.6-20.992-46.592-46.592-46.592z m16.896 237.056c0 9.728-7.68 17.408-16.384 17.408H223.744c-9.216 0-16.896-8.192-16.384-17.408v-190.464c0-9.728 7.68-17.408 16.384-17.408h105.472c9.216 0 16.384 7.68 16.384 17.408v190.464zM569.344 501.76H463.872c-25.6 0-46.592 20.992-46.592 46.592v328.704c0 25.6 20.992 46.592 46.592 46.592h105.472c25.6 0 46.592-20.992 46.592-46.592v-328.704c0-25.6-20.992-46.592-46.592-46.592z m16.896 375.808c0 9.728-7.68 17.92-16.896 17.92H463.872c-9.216 0-16.896-8.192-16.896-17.92v-328.704c0-9.728 7.68-17.92 16.896-17.92h105.472c9.216 0 16.896 8.192 16.896 17.92v328.704z m247.296-491.52h-105.472c-26.112 0-46.592 21.504-46.592 47.104v444.416c0 25.6 20.48 47.104 46.592 47.104h105.472c25.6 0 46.592-21.504 46.592-47.104V433.152c0.512-26.112-20.48-47.104-46.592-47.104z m16.896 491.008c0 10.24-7.68 18.432-16.384 18.432h-105.472c-9.216 0-16.384-8.192-16.384-18.432V433.152c0-10.24 7.68-18.432 16.384-18.432h105.472c9.216 0 16.384 8.192 16.384 18.432v443.904z m-30.208-689.664l45.056 44.032V99.84h-135.168l45.056 44.032L527.36 362.496 391.68 230.912 143.872 450.048l45.056 43.52 202.752-175.104L527.36 450.048l292.864-262.656z" p-id="1774" fill="#ffffff"></path></svg>