<?xml version="1.0" standalone="no"?><!DOCTYPE svg PUBLIC "-//W3C//DTD SVG 1.1//EN" "http://www.w3.org/Graphics/SVG/1.1/DTD/svg11.dtd"><svg t="1494836219081" class="icon" style="" viewBox="0 0 1024 1024" version="1.1" xmlns="http://www.w3.org/2000/svg" p-id="4178" xmlns:xlink="http://www.w3.org/1999/xlink" width="200" height="200"><defs><style type="text/css"></style></defs><path d="M351.8464 840.51968c-35.82464 0-64.88064 29.20448-64.88064 65.2032 0 35.9936 29.056 65.2032 64.88064 65.2032s64.86016-29.2096 64.86016-65.2032C416.70656 869.72416 387.67104 840.51968 351.8464 840.51968L351.8464 840.51968 351.8464 840.51968 351.8464 840.51968zM805.91872 840.51968c-35.86048 0-64.90112 29.20448-64.90112 65.2032 0 35.9936 29.04064 65.2032 64.90112 65.2032 35.7888 0 64.86016-29.2096 64.86016-65.2032C870.77888 869.72416 841.70752 840.51968 805.91872 840.51968L805.91872 840.51968 805.91872 840.51968 805.91872 840.51968zM870.23104 807.95136 343.46496 807.95136c-46.76096 0-87.82848-37.13024-93.57312-84.608L194.9184 334.14656l-31.29856-181.91872c-1.95584-15.83616-16.35328-28.83072-30.42816-28.83072l-41.32864 0c-17.8944 0-32.41472-14.58688-32.41472-32.56832 0-17.9968 14.5152-32.64 32.41472-32.64l41.344 0c47.29344 0 88.84736 37.18144 94.57152 84.608l31.26272 181.18144 55.1936 390.89152c1.8176 15.11424 15.44704 27.904 29.2096 27.904l526.78656 0c17.96608 0 32.47104 14.53568 32.47104 32.59904C902.70208 793.41568 888.19712 807.95136 870.23104 807.95136L870.23104 807.95136 870.23104 807.95136zM384 677.53984c-16.83456 0-31.09376-13.0304-32.32768-30.23872-1.33632-17.8944 12.11904-33.52576 29.9264-34.83136l440.01792-32.56832c16.14336-0.16896 29.75744-12.89216 31.5392-27.392l51.08224-293.76512c1.3056-10.95168-1.7152-22.96832-8.22272-30.37184-4.18304-4.78208-9.43104-7.18336-15.5648-7.18336L318.8992 221.18912c-17.8944 0-32.41472-14.60736-32.41472-32.5888 0-17.9968 14.52032-32.60416 32.41472-32.60416l561.55136 0c24.75008 0 47.5136 10.33728 64.10752 29.13792 18.92352 21.49888 27.63264 51.74784 23.79264 83.16928l-51.08224 293.76512c-5.51936 45.73696-46.56128 82.86208-93.32224 82.86208l-437.56544 32.50176C385.59744 677.53984 384.7424 677.53984 384 677.53984L384 677.53984 384 677.53984z" p-id="4179" fill="#ffffff"></path></svg>