<?xml version="1.0" standalone="no"?><!DOCTYPE svg PUBLIC "-//W3C//DTD SVG 1.1//EN" "http://www.w3.org/Graphics/SVG/1.1/DTD/svg11.dtd"><svg t="1494833890477" class="icon" style="" viewBox="0 0 1024 1024" version="1.1" xmlns="http://www.w3.org/2000/svg" p-id="1057" xmlns:xlink="http://www.w3.org/1999/xlink" width="200" height="200"><defs><style type="text/css"></style></defs><path d="M258.875 439.513c-46.519 0-84.375 37.856-84.375 84.375s37.856 84.375 84.375 84.375c46.519 0 84.375-37.856 84.375-84.375s-37.856-84.375-84.375-84.375zM512 439.513c-46.519 0-84.375 37.856-84.375 84.375s37.856 84.375 84.375 84.375c46.519 0 84.375-37.856 84.375-84.375s-37.856-84.375-84.375-84.375zM765.125 439.513c-46.519 0-84.375 37.856-84.375 84.375s37.856 84.375 84.375 84.375c46.519 0 84.375-37.856 84.375-84.375s-37.856-84.375-84.375-84.375z" p-id="1058" fill="#8a8a8a"></path></svg>