<?xml version="1.0" standalone="no"?><!DOCTYPE svg PUBLIC "-//W3C//DTD SVG 1.1//EN" "http://www.w3.org/Graphics/SVG/1.1/DTD/svg11.dtd"><svg t="1494837426478" class="icon" style="" viewBox="0 0 1024 1024" version="1.1" xmlns="http://www.w3.org/2000/svg" p-id="2398" xmlns:xlink="http://www.w3.org/1999/xlink" width="200" height="200"><defs><style type="text/css"></style></defs><path d="M872.881057 0 164.651982 0C99.242291 0 45.110132 51.876652 45.110132 117.286344l0 787.171806c0 65.409692 51.876652 117.286344 117.286344 117.286344l708.229075 0c65.409692 0 117.286344-51.876652 117.286344-117.286344L987.911894 117.286344C990.167401 51.876652 938.290749 0 872.881057 0zM911.22467 904.45815c0 22.555066-18.044053 38.343612-38.343612 38.343612L164.651982 942.801762c-22.555066 0-38.343612-18.044053-38.343612-38.343612L126.30837 117.286344c0-22.555066 18.044053-38.343612 38.343612-38.343612l708.229075 0c22.555066 0 38.343612 18.044053 38.343612 38.343612L911.22467 904.45815z" p-id="2399" fill="#1296db"></path><path d="M717.251101 584.176211l-171.418502 0 0-49.621145 171.418502 0c15.788546 0 27.066079-13.53304 27.066079-27.066079s-13.53304-27.066079-27.066079-27.066079l-137.585903 0 135.330396-196.229075c4.511013-6.76652 6.76652-13.53304 4.511013-20.299559s-4.511013-13.53304-11.277533-18.044053c-6.76652-4.511013-13.53304-6.76652-20.299559-4.511013s-13.53304 4.511013-18.044053 11.277533L518.76652 469.145374l-151.118943-218.784141c-4.511013-6.76652-11.277533-11.277533-18.044053-11.277533-6.76652-2.255507-13.53304 0-20.299559 4.511013-6.76652 4.511013-11.277533 11.277533-11.277533 18.044053-2.255507 6.76652 0 15.788546 4.511013 20.299559l135.330396 196.229075-137.585903 0c-15.788546 0-27.066079 13.53304-27.066079 27.066079s13.53304 27.066079 27.066079 27.066079l171.418502 0 0 49.621145-171.418502 0c-15.788546 0-27.066079 13.53304-27.066079 27.066079s13.53304 27.066079 27.066079 27.066079l171.418502 0 0 117.286344c0 15.788546 13.53304 27.066079 27.066079 27.066079s27.066079-13.53304 27.066079-27.066079l0-117.286344 171.418502 0c15.788546 0 27.066079-13.53304 27.066079-27.066079S733.039648 584.176211 717.251101 584.176211z" p-id="2400" fill="#1296db"></path></svg>