<?xml version="1.0" standalone="no"?><!DOCTYPE svg PUBLIC "-//W3C//DTD SVG 1.1//EN" "http://www.w3.org/Graphics/SVG/1.1/DTD/svg11.dtd"><svg t="1495071123387" class="icon" style="" viewBox="0 0 1024 1024" version="1.1" xmlns="http://www.w3.org/2000/svg" p-id="6888" xmlns:xlink="http://www.w3.org/1999/xlink" width="200" height="200"><defs><style type="text/css"></style></defs><path d="M163.2 517.6c0-16.8 11.2-30.4 25.6-30.4h278.4V656h70.4V488h279.2c13.6 0 25.6 13.6 25.6 30.4v138.4h70.4V517.6c0-53.6-43.2-97.6-96-97.6H537.6v-120C600 282.4 645.6 224 645.6 153.6 645.6 70.4 580 2.4 499.2 2.4S353.6 69.6 353.6 153.6c0 72 48.8 132 113.6 148v120H188.8c-52.8 0-96 43.2-96 97.6v138.4h70.4V517.6z" fill="#999999" p-id="6889"></path><path d="M503.2 721.6c-80.8 0-146.4 68-146.4 151.2 0 84 65.6 151.2 146.4 151.2s146.4-68 146.4-151.2S584 721.6 503.2 721.6zM146.4 721.6C65.6 721.6 0 788.8 0 872.8 0 956 65.6 1024 146.4 1024c80.8 0 146.4-68 146.4-151.2 0-84-65.6-151.2-146.4-151.2zM877.6 721.6c-80.8 0-146.4 68-146.4 151.2 0 84 65.6 151.2 146.4 151.2 80.8 0 146.4-68 146.4-151.2 0-84-65.6-151.2-146.4-151.2z" fill="#4CA6FF" p-id="6890"></path></svg>