<?xml version="1.0" standalone="no"?><!DOCTYPE svg PUBLIC "-//W3C//DTD SVG 1.1//EN" "http://www.w3.org/Graphics/SVG/1.1/DTD/svg11.dtd"><svg t="1495505166940" class="icon" style="" viewBox="0 0 1024 1024" version="1.1" xmlns="http://www.w3.org/2000/svg" p-id="4222" xmlns:xlink="http://www.w3.org/1999/xlink" width="200" height="200"><defs><style type="text/css"></style></defs><path d="M811.539 828.562c0 13.978-11.348 25.325-25.325 25.325-13.978 0-25.325-11.348-25.325-25.325 0-119.982-83.725-219.899-195.819-245.776l0-1.246c-14.946-4.567-26.016-18.128-26.016-34.596 0-17.99 13.147-32.244 30.169-35.427 53.141-23.525 90.643-76.113 90.643-137.972 0-83.725-67.948-151.673-151.673-151.673l0-0.276c-13.147-0.831-23.665-11.486-23.665-24.91s10.517-24.08 23.665-24.91l0-0.276c0.415 0 0.692 0.139 1.107 0.139 0.139 0 0.415-0.139 0.554-0.139 0.554 0 0.969 0.276 1.522 0.276 110.156 1.798 199.001 91.337 199.001 201.908 0 72.791-38.748 136.035-96.457 171.601 115.138 43.039 197.617 153.056 197.617 283.279l0 0 0 0zM411.738 545.282c115.138 43.039 197.617 153.056 197.617 283.279 0 13.978-11.348 25.325-25.325 25.325-13.978 0-25.325-11.348-25.325-25.325 0-139.633-113.201-252.695-252.695-252.695-139.633 0-252.695 113.201-252.695 252.695 0 13.978-11.348 25.325-25.325 25.325-13.978 0-25.325-11.348-25.325-25.325 0-130.222 82.479-240.241 197.617-283.279-57.569-35.566-96.457-98.81-96.457-171.601 0-111.679 90.506-202.185 202.185-202.185 111.679 0 202.185 90.506 202.185 202.185 0 72.791-38.748 136.035-96.457 171.601l0 0 0 0zM306.01 222.009c-83.725 0-151.673 67.948-151.673 151.673s67.948 151.673 151.673 151.673c83.725 0 151.673-67.948 151.673-151.673 0-83.725-67.81-151.673-151.673-151.673l0 0 0 0zM999.193 531.997l-171.601 0c-12.178 0-22.142-9.964-22.142-22.142s9.964-22.142 22.142-22.142l171.601 0c12.178 0 22.142 9.964 22.142 22.142 0 12.317-9.826 22.142-22.142 22.142l0 0zM916.715 615.583c-12.178 0-22.142-9.964-22.142-22.142l0-171.601c0-12.178 9.964-22.142 22.142-22.142s22.142 9.964 22.142 22.142l0 171.601c0 12.317-9.826 22.142-22.142 22.142l0 0zM916.715 615.583z" p-id="4223" fill="#47bdff"></path></svg>