<?xml version="1.0" standalone="no"?><!DOCTYPE svg PUBLIC "-//W3C//DTD SVG 1.1//EN" "http://www.w3.org/Graphics/SVG/1.1/DTD/svg11.dtd"><svg t="1487899526735" class="icon" style="" viewBox="0 0 1024 1024" version="1.1" xmlns="http://www.w3.org/2000/svg" p-id="2048" xmlns:xlink="http://www.w3.org/1999/xlink" width="200" height="200"><defs><style type="text/css"></style></defs><path d="M737.627119 78.101695 863.596475 78.101695C903.515119 78.101695 945.898305 119.443525 945.898305 163.440814L945.898305 286.372881 1015.322034 286.372881 1015.322034 102.31322C1015.322034 50.609898 972.938847 8.677966 926.025763 8.677966L737.627119 8.677966 737.627119 78.101695" p-id="2049" fill="#3399ff"></path><path d="M78.101695 286.372881 78.101695 163.440814C78.101695 119.443525 111.806915 78.101695 151.725559 78.101695L269.016949 78.101695 269.016949 8.677966 89.296271 8.677966C42.383186 8.677966 8.677966 50.609898 8.677966 102.31322L8.677966 286.372881 78.101695 286.372881" p-id="2050" fill="#3399ff"></path><path d="M269.016949 945.898305 151.725559 945.898305C111.806915 945.898305 78.101695 904.556475 78.101695 860.559186L78.101695 754.983051 8.677966 754.983051 8.677966 921.68678C8.677966 973.390102 42.383186 1015.322034 89.296271 1015.322034L269.016949 1015.322034 269.016949 945.898305" p-id="2051" fill="#3399ff"></path><path d="M945.898305 754.983051 945.898305 860.559186C945.898305 904.556475 903.515119 945.898305 863.596475 945.898305L737.627119 945.898305 737.627119 1015.322034 926.025763 1015.322034C972.938847 1015.322034 1015.322034 973.390102 1015.322034 921.68678L1015.322034 754.983051 945.898305 754.983051" p-id="2052" fill="#3399ff"></path><path d="M980.610169 503.322034C980.610169 527.290576 961.188881 546.711864 937.220339 546.711864L104.135593 546.711864C80.167051 546.711864 60.745763 527.290576 60.745763 503.322034 60.745763 479.353492 80.167051 459.932203 104.135593 459.932203L937.220339 459.932203C961.188881 459.932203 980.610169 479.353492 980.610169 503.322034" p-id="2053" fill="#3399ff"></path></svg>