<?xml version="1.0" standalone="no"?><!DOCTYPE svg PUBLIC "-//W3C//DTD SVG 1.1//EN" "http://www.w3.org/Graphics/SVG/1.1/DTD/svg11.dtd"><svg t="1487899746960" class="icon" style="" viewBox="0 0 1208 1024" version="1.1" xmlns="http://www.w3.org/2000/svg" p-id="2861" xmlns:xlink="http://www.w3.org/1999/xlink" width="235.9375" height="200"><defs><style type="text/css"></style></defs><path d="M0 366.592v-78.336c6.144-17.92 24.064-24.064 41.984-30.208 180.224-83.968 360.96-162.304 541.184-246.784 11.776-6.144 24.064-6.144 41.984 0 186.368 83.968 372.736 168.448 559.616 258.56 17.92 6.144 24.064 17.92 24.064 35.84v54.272c0 24.064-11.776 35.84-35.84 35.84h-41.984V942.592c0 30.208-17.92 59.904-41.984 72.192s-48.128 6.144-72.192 6.144v-463.36h-818.176v463.36h-48.128c-17.92 0-35.84-11.776-48.128-24.064-11.776-17.92-17.92-35.84-17.92-54.272V413.184v-11.776h-35.84c-24.576-10.752-42.496-16.384-48.64-34.816z m288.768 24.064h83.968c11.776 0 11.776-6.144 11.776-11.776v-54.272c0-6.144-6.144-11.776-11.776-11.776h-168.448c-6.144 0-11.776 6.144-11.776 11.776v54.272c0 11.776 6.144 11.776 11.776 11.776h84.48z m619.52 0h83.968c11.776 0 11.776-6.144 11.776-11.776v-54.272c0-11.776-6.144-11.776-11.776-11.776h-168.448c-11.776 0-11.776 6.144-11.776 11.776v48.128c0 12.288 6.144 11.776 17.92 11.776 24.064 6.144 54.272 6.144 78.336 6.144z m-306.688 0h83.968c6.144 0 11.776-6.144 11.776-11.776v-54.272c0-6.144-6.144-11.776-11.776-11.776H517.12c-11.776 0-11.776 6.144-11.776 11.776v48.128c0 12.288 6.144 11.776 11.776 11.776 30.208 6.144 54.272 6.144 84.48 6.144z m-360.96 235.008H962.56v72.192h-721.92v-72.192z m0 120.32H962.56v72.192h-721.92v-72.192z m0 114.176H962.56V932.352h-721.92v-72.192z" fill="#3E5C9D" p-id="2862"></path></svg>