<?xml version="1.0" standalone="no"?><!DOCTYPE svg PUBLIC "-//W3C//DTD SVG 1.1//EN" "http://www.w3.org/Graphics/SVG/1.1/DTD/svg11.dtd"><svg t="1484636077635" class="icon" style="" viewBox="0 0 1024 1024" version="1.1" xmlns="http://www.w3.org/2000/svg" p-id="8948" xmlns:xlink="http://www.w3.org/1999/xlink" width="200" height="200"><defs><style type="text/css"></style></defs><path d="M739.54816 0H284.45184C127.34976 0 0 127.34976 0 284.45184v455.09632C0 896.65024 127.34976 1024 284.45184 1024h455.09632C896.65024 1024 1024 896.65024 1024 739.54816V284.45184C1024 127.34976 896.65024 0 739.54816 0z m-109.7472 488.9856c-95.9488 142.49472-179.34848 307.23072-179.34848 307.23072l-222.75072-252.75392 55.70048-60.6208 135.99744 130.37056S488.6016 498.3296 578.65216 401.3312c88.80128-95.69792 198.4-173.54752 198.4-173.54752l19.2512 54.90176c-0.00512 0-92.40576 96.30208-166.5024 206.30016z" fill="#58B0D5" p-id="8949"></path></svg>