<?xml version="1.0" standalone="no"?><!DOCTYPE svg PUBLIC "-//W3C//DTD SVG 1.1//EN" "http://www.w3.org/Graphics/SVG/1.1/DTD/svg11.dtd"><svg t="1486712465362" class="icon" style="" viewBox="0 0 3528 1024" version="1.1" xmlns="http://www.w3.org/2000/svg" p-id="8951" xmlns:xlink="http://www.w3.org/1999/xlink" width="689.0625" height="200"><defs><style type="text/css"></style></defs><path d="M3186.351 62h-2850.022c-69.040 0-124.997 55.957-124.997 124.997v650.005c0 69.047 55.957 124.997 124.997 124.997h2850.022c69.047 0 124.997-55.957 124.997-124.997v-650c0-69.047-55.95-125.003-124.997-125.003zM3261.928 837.003c0 41.674-33.903 75.577-75.577 75.577h-1334.148c-41.674 0-75.577-33.903-75.577-75.577v-650c0-41.675 33.903-75.577 75.577-75.577h1334.148c41.674 0 75.577 33.903 75.577 75.577v650z" p-id="8952" fill="#3399ff"></path></svg>