<?xml version="1.0" standalone="no"?><!DOCTYPE svg PUBLIC "-//W3C//DTD SVG 1.1//EN" "http://www.w3.org/Graphics/SVG/1.1/DTD/svg11.dtd"><svg t="1484814227303" class="icon" style="" viewBox="0 0 1072 1024" version="1.1" xmlns="http://www.w3.org/2000/svg" p-id="3278" xmlns:xlink="http://www.w3.org/1999/xlink" width="209.375" height="200"><defs><style type="text/css"></style></defs><path d="M1061.2 951.504l-105.296-105.296a230.624 230.624 0 0 0 56.432-151.472c0-127.856-103.648-231.504-231.504-231.504s-231.52 103.648-231.52 231.504S652.96 926.24 780.816 926.24c47.136 0 90.976-14.08 127.536-38.272l108.192 108.192a31.552 31.552 0 0 0 44.528-0.112 31.44 31.44 0 0 0 0.128-44.544z m-280.384-75.6c-100.064 0-181.184-81.12-181.184-181.168 0-100.064 81.12-181.184 181.184-181.184s181.184 81.12 181.184 181.184c0 100.048-81.12 181.168-181.184 181.168z" p-id="3279" fill="#e0620d"></path><path d="M935.728 253.664v-0.896h-0.256c-2.24-6.752-11.168-10.816-19.344-15.008L481.808 20.608a24.608 24.608 0 0 0-22.224 0L25.264 237.76c-16.16 10.608-13.632 34.096-13.632 36.624v463.36c0 8.592 4.544 16.672 11.872 21.216 0 0 424.976 256.8 432.304 260.08 14.896 7.328 24.24 5.296 31.312 1.76l141.408-81.808a25.2 25.2 0 0 0 9.088-34.592 25.216 25.216 0 0 0-34.352-9.344l-97.712 56.816-10.08 5.296v-436.32l384.32-218.176 1.216-0.736v116.256c0 13.264 10.816 23.984 24.16 23.984h6.4c13.344 0 24.16-10.736 24.16-23.984V258.048c0.08-0.272 0.16-0.528 0.208-0.768a11.232 11.232 0 0 0-0.208-3.616z m-489.76 702.256L60.896 723.872V302.176l385.072 218.672v435.072zM470.72 477.92L88.672 261.248 470.72 70.336l382.064 190.912L470.72 477.92z" p-id="3280" fill="#e0620d"></path><path d="M164.768 427.136a24.304 24.304 0 0 0-33.584 8.336 24.656 24.656 0 0 0 8.336 33.84l144.944 86.848a24.16 24.16 0 0 0 33.584-8.592 24.304 24.304 0 0 0-8.336-33.584l-144.944-86.848z" p-id="3281" fill="#e0620d"></path></svg>