<?xml version="1.0" standalone="no"?><!DOCTYPE svg PUBLIC "-//W3C//DTD SVG 1.1//EN" "http://www.w3.org/Graphics/SVG/1.1/DTD/svg11.dtd"><svg t="1484816613057" class="icon" style="" viewBox="0 0 1024 1024" version="1.1" xmlns="http://www.w3.org/2000/svg" p-id="6268" xmlns:xlink="http://www.w3.org/1999/xlink" width="200" height="200"><defs><style type="text/css"></style></defs><path d="M798.806377 326.240249l55.660694 55.661717 157.451008-157.449985c15.376199-15.368012 15.376199-40.292682 0-55.661717L854.467071 11.339256l-55.660694 55.661717L928.425504 196.621123 798.806377 326.240249z" p-id="6269" fill="#3399ff"></path><path d="M224.665085 696.77226l-55.661717-55.661717L11.553383 798.561551c-15.376199 15.368012-15.376199 40.292682 0 55.661717l157.449985 157.451008 55.661717-55.661717L95.044936 826.39241 224.665085 696.77226z" p-id="6270" fill="#3399ff"></path><path d="M197.357136 551.076994l235.653091 0L433.010227 472.350978 197.357136 472.350978c-65.117067 0-118.087489-52.970422-118.087489-118.087489l-0.030699-161.863505c2.367931-63.741743 54.123688-113.674992 117.826546-113.674992l157.74265 0c51.300386 0 94.938256 32.93511 111.199615 78.724992L354.808144 157.449985c-108.523669 0-196.813504 88.288812-196.813504 196.813504l78.724992 0c0-65.117067 52.970422-118.087489 118.087489-118.087489l118.087489 0 0 275.538497 78.724992 0L551.619602 236.176001l275.538497 0 0-78.724992-279.505855 0c-18.286482-89.726557-97.800443-157.449985-192.846146-157.449985l-157.74265 0c-106.247836 0-192.553481 83.23061-196.520839 190.939727l0 163.323762C0.544655 462.787158 88.833467 551.076994 197.357136 551.076994z" p-id="6271" fill="#3399ff"></path><path d="M827.159122 472.374514 590.461235 472.374514l0 78.724992 236.69891 0c65.117067 0 118.087489 52.970422 118.087489 118.087489l0 157.451008c0 65.117067-52.970422 118.087489-118.087489 118.087489L669.709137 944.725492c-51.300386 0-94.938256-32.934087-111.199615-78.724992l111.199615 0c108.523669 0 196.813504-88.288812 196.813504-196.813504L787.796626 669.186995c0 65.117067-52.970422 118.087489-118.087489 118.087489L551.620625 787.274484 551.620625 511.73701l-78.724992 0 0 275.538497L197.357136 787.275507l0 78.724992 279.504832 0c18.286482 89.725534 97.800443 157.451008 192.846146 157.451008l157.449985 0c108.523669 0 196.813504-88.288812 196.813504-196.813504L1023.971603 669.188019C1023.972627 560.663326 935.682791 472.374514 827.159122 472.374514z" p-id="6272" fill="#3399ff"></path></svg>