<?xml version="1.0" standalone="no"?><!DOCTYPE svg PUBLIC "-//W3C//DTD SVG 1.1//EN" "http://www.w3.org/Graphics/SVG/1.1/DTD/svg11.dtd"><svg t="1484817481748" class="icon" style="" viewBox="0 0 1024 1024" version="1.1" xmlns="http://www.w3.org/2000/svg" p-id="10645" xmlns:xlink="http://www.w3.org/1999/xlink" width="200" height="200"><defs><style type="text/css"></style></defs><path d="M666.705248 446.560256C652.03834 435.910656 629.905021 438.859776 618.736079 452.786176L453.799883 657.524736 399.571201 596.719616C387.747672 583.510016 365.307512 581.646336 351.377021 592.848896 344.115164 598.644736 339.717138 606.877696 338.939813 615.950336 338.162487 625.002496 341.128598 633.767936 347.244922 640.608256L429.027747 732.317696C435.614557 739.649536 445.147023 743.847936 455.149975 743.847936L456.009124 743.847936C466.380283 743.602176 476.035483 738.912256 482.438191 731.006976L673.251145 494.073856C679.01972 486.926336 681.494889 478.038016 680.287984 469.088256 679.081085 459.995136 674.253486 452.007936 666.705248 446.560256" p-id="10646" fill="#6ede2e"></path><path d="M839.142636 92.283414 722.216515 92.283414C738.601717 111.596054 749.034247 136.090134 750.793456 162.918934L803.856148 162.918934 803.856148 940.012054 198.176393 940.012054 198.176393 162.918934 251.239086 162.918934C253.018752 136.090134 263.410367 111.596054 279.79557 92.283414L162.86945 92.283414C143.415857 92.283414 127.623876 108.114454 127.623876 127.631894L127.623876 975.278614C127.623876 994.837014 143.415857 1010.647574 162.86945 1010.647574L839.142636 1010.647574C858.637138 1010.647574 874.449577 994.837014 874.449577 975.278614L874.449577 127.631894C874.449577 108.114454 858.637138 92.283414 839.142636 92.283414" p-id="10647" fill="#6ede2e"></path><path d="M335.535945 165.359616C335.535945 162.594816 335.904152 159.952896 336.456462 157.310976 340.13853 140.722176 354.907715 128.270336 372.581642 128.270336L428.160415 128.270336C439.86121 128.270336 449.332307 118.808576 449.332307 107.073536L449.332307 86.675456 449.332307 79.507456C449.332307 59.047936 465.942526 42.397696 486.378004 42.397696L515.650446 42.397696C536.085924 42.397696 552.696142 59.047936 552.696142 79.507456L552.696142 86.675456 552.696142 107.073536C552.696142 118.808576 562.187696 128.270336 573.868036 128.270336L629.446807 128.270336C647.120736 128.270336 661.869461 140.722176 665.571987 157.310976 666.144755 159.952896 666.512958 162.594816 666.512958 165.359616L666.512958 169.639936C666.512958 190.038016 649.882286 206.688256 629.446807 206.688256L372.581642 206.688256C352.146164 206.688256 335.535945 190.038016 335.535945 169.639936L335.535945 165.359616ZM372.581642 249.081856 629.446807 249.081856C673.222505 249.081856 708.856743 213.446656 708.856743 169.639936L708.856743 165.359616C708.856743 162.676736 708.713552 159.952896 708.427171 157.310976 704.745102 120.754176 676.209072 91.549696 640.063439 86.675456 636.585931 86.204416 633.067507 85.876736 629.446807 85.876736L595.060384 85.876736 595.060384 79.507456C595.060384 35.680256 559.426145 0.004096 515.650446 0.004096L486.378004 0.004096C442.602305 0.004096 407.008979 35.680256 407.008979 79.507456L407.008979 85.876736 372.581642 85.876736C368.981398 85.876736 365.462977 86.204416 361.985468 86.675456 325.819376 91.549696 297.262892 120.754176 293.580824 157.310976 293.335353 159.952896 293.192161 162.676736 293.192161 165.359616L293.192161 169.639936C293.192161 213.446656 328.805943 249.081856 372.581642 249.081856L372.581642 249.081856Z" p-id="10648" fill="#6ede2e"></path><path d="M491.671999 104.439808C494.392639 106.364928 497.481485 107.675648 501.020362 107.675648 504.579694 107.675648 507.648084 106.364928 510.368723 104.439808 514.684926 101.449728 517.671492 96.698368 517.671492 91.004928 517.671492 89.489408 517.201006 88.076288 516.812343 86.683648 514.889485 79.638528 508.691337 74.313728 501.020362 74.313728 493.349386 74.313728 487.171694 79.638528 485.22838 86.683648 484.839717 88.076288 484.369231 89.489408 484.369231 91.004928 484.369231 96.677888 487.355798 101.449728 491.671999 104.439808" p-id="10649" fill="#6ede2e"></path></svg>