<?xml version="1.0" standalone="no"?><!DOCTYPE svg PUBLIC "-//W3C//DTD SVG 1.1//EN" "http://www.w3.org/Graphics/SVG/1.1/DTD/svg11.dtd"><svg t="1484817623350" class="icon" style="" viewBox="0 0 1024 1024" version="1.1" xmlns="http://www.w3.org/2000/svg" p-id="11565" xmlns:xlink="http://www.w3.org/1999/xlink" width="200" height="200"><defs><style type="text/css"></style></defs><path d="M767.54821 127.981836 255.863389 127.981836 63.981197 319.863005l63.960731 575.645552 767.527744 0 63.960731-575.645552L767.54821 127.981836zM840.646042 831.54885 182.765557 831.54885l-54.82363-447.724091 767.527744 0L840.646042 831.54885zM127.941927 319.863005l164.469865-127.921461 438.58699 0 164.469865 127.921461L127.941927 319.863005z" p-id="11566" fill="#4332a2"></path><path d="M346.098529 458.017528 217.225393 585.938989 316.204685 585.938989 316.204685 733.886553 375.993396 733.886553 375.993396 585.938989 474.971665 585.938989Z" p-id="11567" fill="#4332a2"></path><path d="M695.26493 605.965092 695.26493 458.017528 635.476219 458.017528 635.476219 605.965092 536.496927 605.965092 665.370063 733.886553 794.243199 605.965092Z" p-id="11568" fill="#4332a2"></path></svg>