<?xml version="1.0" standalone="no"?><!DOCTYPE svg PUBLIC "-//W3C//DTD SVG 1.1//EN" "http://www.w3.org/Graphics/SVG/1.1/DTD/svg11.dtd"><svg t="1484633396217" class="icon" style="" viewBox="0 0 1024 1024" version="1.1" xmlns="http://www.w3.org/2000/svg" p-id="3098" xmlns:xlink="http://www.w3.org/1999/xlink" width="200" height="200"><defs><style type="text/css"></style></defs><path d="M847.61088 479.40096c3.13856-3.14368 4.96128-7.63904 4.96128-12.0832l0-375.296c0-4.5312-2.0224-8.92928-5.26336-12.07808-3.1232-3.02592-7.41376-4.64384-11.76576-4.64384L459.648 75.29984c-4.43904 0-8.9344 1.81248-12.07296 4.95104L93.35808 433.87904c-36.31104 36.31616-36.31104 95.58528 0 131.91168l268.13952 267.84768c36.34688 36.35712 95.57504 36.32128 131.90144 0L847.61088 479.40096 847.61088 479.40096zM609.81248 175.63136c19.57376-19.56864 45.27104-29.42976 70.912-29.41952 25.64096 0.01536 51.33312 9.85088 70.90176 29.41952 39.1424 39.13728 39.1424 102.3744 0 141.51168-39.13216 39.1424-102.67136 39.13728-141.80864 0C570.68032 278.00064 570.68032 214.76352 609.81248 175.63136L609.81248 175.63136zM957.53216 471.96672l-79.56992-366.94016c-0.66048-3.02592-2.21696-5.80096-4.34176-8.04864 2.11968 103.51616 0.32256 207.04256 0.93184 310.58432-2.97984 26.35776 6.2976 54.65088-5.25824 79.58016-114.36544 118.48192-232.68864 233.48224-348.95872 350.21824-13.71136 18.4832-33.15712 31.78496-54.79936 39.0144l89.48224 57.59488c43.22304 27.83232 101.2992 15.01184 129.12128-28.18048l270.9248-421.12512C957.46048 480.93184 958.46912 476.30848 957.53216 471.96672L957.53216 471.96672z" p-id="3099" fill="#d81e06"></path></svg>