<?xml version="1.0" standalone="no"?><!DOCTYPE svg PUBLIC "-//W3C//DTD SVG 1.1//EN" "http://www.w3.org/Graphics/SVG/1.1/DTD/svg11.dtd"><svg t="1484633586879" class="icon" style="" viewBox="0 0 1024 1024" version="1.1" xmlns="http://www.w3.org/2000/svg" p-id="4104" xmlns:xlink="http://www.w3.org/1999/xlink" width="200" height="200"><defs><style type="text/css"></style></defs><path d="M512.326435 959.047686c-81.555457 0-161.369248-22.193465-230.81183-64.179718-14.686491-8.879228-19.393699-27.983331-10.514471-42.668799 8.880251-14.685467 27.984355-19.394722 42.669822-10.513448 59.742662 36.119639 128.438231 55.213509 198.657502 55.213509 212.048487 0 384.561539-172.514075 384.561539-384.561539S724.373898 127.778198 512.326435 127.778198c-212.047464 0-384.560516 172.512029-384.560516 384.559493 0 74.845639 21.505803 147.381675 62.193481 209.772654 9.374508 14.374382 5.320169 33.626865-9.054213 43.002396-14.373359 9.370415-33.627888 5.322216-43.00342-9.055237-47.289026-72.512501-72.285327-156.788929-72.285327-243.719814 0-119.320573 46.465265-231.498468 130.837884-315.870064 84.371596-84.371596 196.550515-130.836861 315.870064-130.836861 119.321596 0 231.499491 46.465265 315.871087 130.836861 84.372619 84.371596 130.838907 196.550515 130.838907 315.870064s-46.465265 231.500515-130.838907 315.872111C743.825926 912.582421 631.647007 959.047686 512.326435 959.047686z" p-id="4105" fill="#550104"></path><path d="M550.401612 771.477706c-95.853092 0-161.587212-25.768897-197.194174-77.287247-10.610662 21.594831-24.818245 39.58353-42.621726 53.985542-10.992355 8.712429-20.839631 15.3455-29.550013 19.890003-8.719592 4.546549-15.72617 6.819313-21.026896 6.819313-3.409656-1.13587-7.769964-3.505847-13.07069-7.103792-5.309936-3.604084-7.956206-8.435113-7.956206-14.491039 0-3.790326 1.420349-7.671727 4.26207-11.648294 2.841721-3.978614 8.045233-7.869225 15.626909-11.650341l-0.567935 0c45.463448-25.00551 68.195172-55.124482 68.195172-90.357937L326.498122 461.193871c0-4.91801-1.705851-7.387247-5.115508-7.387247l-61.374836 0c-13.638625 0-20.458961-6.437619-20.458961-19.320021 0-7.958252 1.420349-14.012132 4.26207-18.186198 2.841721-4.16588 8.240685-6.251378 16.196891-6.251378l72.17174 0c7.956206 0 14.393825 0.478907 19.322068 1.420349 4.919033 0.949628 8.710382 3.127224 11.365862 6.535857 2.645247 3.41068 4.448312 8.150634 5.39794 14.207583 0.941442 6.065136 1.421372 14.207583 1.421372 24.437575L369.68676 633.951493c6.054903 29.179576 23.867594 52.185546 53.41863 69.047586 29.550013 16.85283 68.194148 25.289989 115.930359 25.289989l225.607294 0c14.012132 0 21.026896 7.192819 21.026896 21.594831 0 14.393825-7.014764 21.594831-21.026896 21.594831L550.401612 771.478729zM397.533992 344.127641c0 5.683443-2.371 10.991332-7.103792 15.911388-4.742001 4.928243-9.945513 7.387247-15.628956 7.387247-6.065136 0-14.402011-5.301749-25.004487-15.911388-4.927219-4.920056-10.42442-10.132778-16.480346-15.626909-6.064113-5.487991-12.883425-11.082406-20.457938-16.765849-7.583722-6.437619-14.119579-11.737322-19.606547-15.911388-5.497201-4.16588-10.327206-7.387247-14.491039-9.660011-5.309936-3.028986-9.28855-6.437619-11.933797-10.229992-2.65548-3.78214-3.977591-7.387247-3.977591-10.79588 1.509377-4.920056 3.594875-9.946536 6.250354-15.058974 2.64627-5.115508 7.760754-7.673773 15.344476-7.673773 6.436596 0 14.580067 3.792373 24.436552 11.366885 5.300726 3.792373 11.738345 8.718569 19.321044 14.775518 7.574512 6.065136 16.284895 13.07069 26.140357 21.026896l-0.567935 0c20.831444 16.676821 33.146934 27.091008 36.939307 31.256888C395.260206 333.524143 397.533992 338.825892 397.533992 344.127641zM721.455429 568.599066c-6.819313 5.683443-14.491039 11.561313-23.01518 17.618263-8.524141 6.065136-18.09717 12.314467-28.698622 18.752086 3.02694 3.038196 5.966898 5.877871 8.807596 8.524141 2.842745 2.656503 5.585205 5.115508 8.241708 7.389294 17.047258 15.538905 30.491455 27.757181 40.346917 36.653805 9.848299 8.905834 15.715937 14.304797 17.618263 16.195867 3.408633 3.408633 5.966898 6.916527 7.671727 10.512425 1.704828 3.596921 2.556219 6.722098 2.556219 9.378601 0 6.053879-2.654456 11.364839-7.956206 15.911388-4.928243 4.16588-9.94449 6.251378-15.058974 6.251378s-10.140964-2.469238-15.058974-7.387247l0.567935 0c-10.993378-10.229992-21.878287-20.653389-32.677237-31.256888-10.79588-10.601452-21.692045-21.026896-32.67519-31.254841-20.458961-18.940374-43.759643-40.348963-69.898976-64.216557-26.14138-23.867594-54.555523-49.441039-85.24243-76.719312l-32.392758 0 0 146.618289c0 4.928243 0.373507 7.387247 1.136893 7.387247 1.509377 0 6.251378-1.224898 14.207583-3.695159 7.956206-2.459005 16.666588-5.202489 26.140357-8.239662 10.984169-4.163833 21.310352-8.045233 30.970362-11.648294 9.662057-3.596921 17.138332-6.90834 22.449291-9.946536 12.874215-6.437619 22.730701-9.562796 29.550013-9.375531 6.819313 0.195451 11.55108 2.75167 14.207583 7.671727l-0.567935 0c3.02694 4.928243 4.544503 9.092076 4.544503 12.502755 0 2.272763-0.381693 4.358261-1.13587 6.251378-0.763386 1.899256-2.556219 4.074805-5.398964 6.53381-2.840698 2.469238-6.819313 5.309936-11.932774 8.526187-5.115508 3.222391-12.218276 6.916527-21.310352 11.08036-8.339946 3.792373-17.618263 7.485485-27.846208 11.082406-10.229992 3.594875-21.409612 7.476275-33.529651 11.648294-25.38618 8.328689-42.816155 12.502755-52.28276 12.502755-11.365862 0-19.888979-4.742001-25.572422-14.207583-4.173043-7.201006-6.251378-18.370393-6.251378-33.529651L421.969521 310.030056c0-18.558681 3.215228-31.157627 9.661034-37.790698 6.437619-6.624884 18.371416-9.946536 35.801391-9.946536l226.747257 0c17.420765 0 29.550013 3.507894 36.370349 10.514471 6.819313 7.014764 10.227945 19.420305 10.227945 37.22174l0 145.480372c0 18.186198-3.505847 30.972409-10.512425 38.360679-7.014764 7.387247-19.038612 11.08036-36.08587 11.08036L558.925752 504.950444c14.777565 13.266142 28.600385 25.484418 41.484833 36.655851 12.876262 11.177574 25.759687 22.641673 38.644135 34.378995 12.119015-7.574512 24.15105-16.09763 36.08587-25.571399 11.93482-9.464559 22.819728-19.127639 32.67519-28.982078 6.819313-6.819313 12.876262-10.700713 18.186198-11.650341 5.301749-0.941442 9.749038-0.284479 13.355169 1.988284 3.594875 2.27481 6.340405 5.309936 8.239662 9.094122 1.89107 3.790326 2.840698 6.633071 2.840698 8.524141C750.437507 539.243481 740.777497 552.314171 721.455429 568.599066zM698.723705 362.879728 698.723705 314.577628c0-6.437619-2.654456-9.662057-7.956206-9.662057L471.41056 304.915571c-3.036149 0-4.927219 0.763386-5.682419 2.27481-0.76441 1.517563-1.136893 3.976568-1.136893 7.387247l0 48.302099L698.723705 362.879728zM698.723705 404.365584 464.590224 404.365584l0 57.96518 226.177276 0c5.301749 0 7.956206-3.594875 7.956206-10.79588L698.723705 404.365584z" p-id="4106" fill="#550104"></path></svg>