<?xml version="1.0" standalone="no"?><!DOCTYPE svg PUBLIC "-//W3C//DTD SVG 1.1//EN" "http://www.w3.org/Graphics/SVG/1.1/DTD/svg11.dtd"><svg t="1484652640577" class="icon" style="" viewBox="0 0 1024 1024" version="1.1" xmlns="http://www.w3.org/2000/svg" p-id="3109" xmlns:xlink="http://www.w3.org/1999/xlink" width="200" height="200"><defs><style type="text/css"></style></defs><path d="M546.970978 923.756925c-136.580678 0-270.282796-67.724451-348.618932-191.381795-6.41306-10.18599-3.394307-23.580045 6.791683-29.994128 10.188037-6.320962 23.581068-3.396353 29.995151 6.696516 52.631708 83.145675 134.410246 140.823306 230.43116 162.330132 96.021937 21.598924 194.588837 4.52813 277.734512-48.152696 83.146699-52.584636 140.777257-134.457318 162.330132-230.43116 21.553898-95.973842 4.481058-194.634886-48.151673-277.734512-52.632731-83.098603-134.50439-140.777257-230.478232-162.330132-95.973842-21.599947-194.635909-4.432962-277.734512 48.199769-108.188025 68.478627-172.23369 185.863105-171.290201 314.094628 0.048095 11.979846-9.620102 21.788236-21.599947 21.883403-0.094144 0-0.094144 0-0.188288 0-11.885701 0-21.600971-9.621125-21.695115-21.600971-1.036609-143.276171 70.553892-274.574542 191.523011-351.163895 92.955088-58.763358 203.218378-77.911464 310.51101-53.858652 107.293655 24.145933 198.786439 88.568175 257.643941 181.524287 121.486912 191.806467 64.233953 446.714088-127.619586 568.155974C698.35992 903.146515 622.239242 923.756925 546.970978 923.756925z" p-id="3110" fill="#28f705"></path><path d="M688.644651 717.51877c-8.064676 0-16.083304-3.064802-22.213931-9.195429L511.598352 553.539069c-5.848195-5.848195-9.148357-13.865799-9.148357-22.165836L502.449995 262.645862c0-17.35425 14.054087-31.40936 31.362288-31.40936s31.362288 14.054087 31.362288 31.40936l0 255.710916L710.809463 663.944598c12.262278 12.215206 12.262278 32.116465 0 44.378743C704.678836 714.453968 696.661232 717.51877 688.644651 717.51877z" p-id="3111" fill="#28f705"></path><path d="M156.190807 536.937972c-1.037632 0-2.170432-0.095167-3.207042-0.283456-6.224772-0.943488-11.790534-4.527107-15.139815-9.809413L64.744072 411.346579c-6.415107-10.138918-3.396353-23.533996 6.744611-29.995151 10.18599-6.365988 23.580045-3.347235 29.994128 6.744611l59.705823 94.323249 76.024487-64.800865c9.102309-7.734148 22.825868-6.696516 30.655184 2.452865 7.78122 9.149381 6.696516 22.825868-2.452865 30.655184l-95.077426 81.022315C166.376797 535.14514 161.377946 536.937972 156.190807 536.937972z" p-id="3112" fill="#28f705"></path></svg>