<?xml version="1.0" standalone="no"?><!DOCTYPE svg PUBLIC "-//W3C//DTD SVG 1.1//EN" "http://www.w3.org/Graphics/SVG/1.1/DTD/svg11.dtd"><svg t="1484732798919" class="icon" style="" viewBox="0 0 1039 1024" version="1.1" xmlns="http://www.w3.org/2000/svg" p-id="3503" xmlns:xlink="http://www.w3.org/1999/xlink" width="202.9296875" height="200"><defs><style type="text/css"></style></defs><path d="M625.791649 540.108175 502.815827 540.108175l0-58.758242 122.975822 0c18.234293 0 33.019021-14.781658 33.019021-33.019021 0-18.235316-14.783705-33.019021-33.019021-33.019021L518.311753 415.311891 649.137357 284.486286c12.895705-12.893658 12.894681-33.799804 0-46.693462-12.894681-12.894681-33.800827-12.894681-46.694485 0L469.797829 370.436844 337.15381 237.792824c-12.894681-12.894681-33.800827-12.894681-46.694485 0-12.894681 12.893658-12.896728 33.799804 0 46.693462L421.283906 415.311891l-107.47785 0c-18.235316 0-33.019021 14.783705-33.019021 33.019021 0 18.23634 14.782681 33.019021 33.019021 33.019021l122.971729 0 0 58.758242L313.806055 540.108175c-18.235316 0-33.019021 14.779611-33.019021 33.017998 0 18.235316 14.782681 33.019021 33.019021 33.019021l122.971729 0 0 154.171312c0 18.23634 14.783705 33.019021 33.019021 33.019021 18.235316 0 33.019021-14.781658 33.019021-33.019021l0-154.171312 122.975822 0c18.234293 0 33.019021-14.782681 33.019021-33.019021C658.809647 554.887786 644.025942 540.108175 625.791649 540.108175zM1021.889943 717.429743c-4.765537-17.600867-22.900569-28.005844-40.501436-23.237237l-90.394776 24.479531c31.095205-62.721507 48.600905-133.320425 48.600905-207.944006 0-259.044848-210.749912-469.795782-469.797829-469.795782-259.046894 0-469.797829 210.750935-469.797829 469.795782 0 259.047918 210.750935 469.800899 469.797829 469.800899 83.934644 0 162.78755-22.146393 231.055376-60.871369 0.352017-0.185218 0.693802-0.385786 1.036609-0.583285 0.300852-0.169869 0.603751-0.338714 0.905626-0.508583l-0.017396-0.030699c9.422603-5.815449 15.72003-16.202007 15.72003-28.085662 0-18.235316-14.781658-33.019021-33.019021-33.019021-5.571902 0-10.815323 1.393743-15.421224 3.833305l-0.014326-0.023536c-59.051931 33.868365-127.426181 53.251831-200.246697 53.251831C247.163239 914.489864 66.037019 733.360574 66.037019 510.727007 66.037019 288.094464 247.163239 106.968244 469.796806 106.968244s403.759787 181.125197 403.759787 403.758764c0 64.297398-15.122419 125.125789-41.977044 179.134867l-26.172079-96.646154c-4.76656-17.602913-22.899546-28.006867-40.501436-23.242354-17.600867 4.768607-28.005844 22.902616-23.239284 40.503483l46.131667 170.34876c2.289136 8.452509 7.843642 15.650445 15.437597 20.008706 5.045923 2.894933 10.717086 4.378727 16.435321 4.378727 2.888793 0 5.79089-0.379647 8.628518-1.14815l170.350806-46.134737C1016.250502 753.165642 1026.657526 735.032656 1021.889943 717.429743z" p-id="3504" fill="#d81e06"></path></svg>