<?xml version="1.0" standalone="no"?><!DOCTYPE svg PUBLIC "-//W3C//DTD SVG 1.1//EN" "http://www.w3.org/Graphics/SVG/1.1/DTD/svg11.dtd"><svg t="1484731806874" class="icon" style="" viewBox="0 0 1024 1024" version="1.1" xmlns="http://www.w3.org/2000/svg" p-id="2015" xmlns:xlink="http://www.w3.org/1999/xlink" width="200" height="200"><defs><style type="text/css"></style></defs><path d="M859.004155 89.335654H164.995845c-54.697763 0-99.135858 44.50154-99.135858 99.145068V835.522348c0 54.714136 44.438095 99.143021 99.135858 99.143021h694.00831c54.711066 0 99.135858-44.428885 99.135858-99.143021V188.480722c0-54.643528-44.424792-99.145068-99.135858-99.145068z m-78.007655 226.577389c-21.461801 129.055285-133.901663 227.750097-268.997523 227.750097-135.067208 0-247.420089-98.668207-268.874727-227.700978-16.873296-7.922437-28.555359-25.073048-28.55536-44.889373 0-27.405163 22.187325-49.574069 49.568953-49.574069 27.403117 0 49.576115 22.168905 49.576115 49.574069 0 16.71366-8.312316 31.526017-21.034059 40.512692 19.107173 103.69571 110.141516 182.503591 219.320101 182.503591 109.171422 0 200.272279-78.777181 219.414245-182.440146-12.766768-8.981559-21.135366-23.821545-21.135366-40.576137 0-27.405163 22.194488-49.574069 49.583278-49.574069 27.403117 0 49.574069 22.168905 49.574069 49.574069-0.001023 19.774369-11.621688 36.894282-28.439726 44.840254z" p-id="2016" fill="#e0620d"></path></svg>