<?xml version="1.0" standalone="no"?><!DOCTYPE svg PUBLIC "-//W3C//DTD SVG 1.1//EN" "http://www.w3.org/Graphics/SVG/1.1/DTD/svg11.dtd"><svg t="1484789977542" class="icon" style="" viewBox="0 0 1024 1024" version="1.1" xmlns="http://www.w3.org/2000/svg" p-id="2013" xmlns:xlink="http://www.w3.org/1999/xlink" width="200" height="200"><defs><style type="text/css"></style></defs><path d="M509.6448 58.42432c-250.25024 0-453.84192 203.5968-453.84192 453.84704s203.59168 453.84192 453.84192 453.84192c100.00384 0 194.86208-31.89248 274.29888-92.23168 5.63712-4.2752 9.27232-10.48576 10.22464-17.48992 0.96256-7.01952-0.87552-13.98272-5.15072-19.59936-5.02272-6.67136-12.71296-10.496-21.0944-10.496-5.81632 0-11.35104 1.85344-16.0256 5.38112-70.14912 53.2992-153.92256 81.47456-242.2528 81.47456-221.04576 0-400.87552-179.83488-400.87552-400.88064S288.59904 111.39072 509.6448 111.39072s400.87552 179.83488 400.87552 400.88064c0 81.35168-24.20736 159.63136-70.00576 226.37568-3.9936 5.83168-5.47328 12.8768-4.16768 19.84s5.23776 12.99456 11.07456 16.98816c4.4288 3.03616 9.60512 4.63872 14.95552 4.63872 8.72448 0 16.90112-4.29056 21.86752-11.48928 51.84-75.66848 79.24736-164.31616 79.24736-256.35328C963.49184 262.02112 759.89504 58.42432 509.6448 58.42432z" p-id="2014" fill="#0f74d6"></path><path d="M509.6448 624.22016c11.00288 0 20.46464-6.74304 24.45824-16.32256l62.4384 71.36256c5.02272 5.76512 12.29312 9.07264 19.94752 9.07264 6.41024 0 12.60544-2.33472 17.42848-6.55872 10.98752-9.58976 12.11392-26.35264 2.49856-37.38112l-100.28544-114.59072L536.13056 277.21728c0-14.60224-11.8784-26.48064-26.48576-26.48064-14.60224 0-26.48064 11.8784-26.48064 26.48064l0 192.77824c-9.58464-7.46496-24.38144-7.17312-33.70496 0.98304-5.31968 4.66432-8.50944 11.12064-8.97536 18.176-0.46592 7.06048 1.8432 13.8752 6.50752 19.19488l36.1728 41.33888 0 48.04096C483.15904 612.33152 495.04256 624.22016 509.6448 624.22016z" p-id="2015" fill="#0f74d6"></path></svg>