<?xml version="1.0" standalone="no"?><!DOCTYPE svg PUBLIC "-//W3C//DTD SVG 1.1//EN" "http://www.w3.org/Graphics/SVG/1.1/DTD/svg11.dtd"><svg t="1484119982080" class="icon" style="" viewBox="0 0 1024 1024" version="1.1" xmlns="http://www.w3.org/2000/svg" p-id="14819" xmlns:xlink="http://www.w3.org/1999/xlink" width="200" height="200"><defs><style type="text/css"></style></defs><path d="M573.038168 742.836389l0-67.282383c56.517201-12.244882 79.465866-88.670505 114.594945-123.82312 35.132148-35.129078 85.58933-55.05899 93.210915-126.881782 7.643074-71.865771-51.956326-81.006965-51.956326-81.006965L728.887702 206.236108C712.081944 88.536452 534.804379 36.558637 458.399221 61.005422c-76.405157 25.988908-155.87 12.244882-155.87 12.244882 56.538691 82.548064-24.426319 87.13043-35.110659 131.464147l0 137.607054c0 0-41.251519 9.184173-33.610492 81.006965 7.622608 71.865771 56.517201 91.732238 93.209892 126.862339 35.110659 35.132148 58.07979 111.598704 114.596991 123.842563l0 67.284429c0 0-212.387201 48.895617-267.426749 65.720817-55.018058 16.827247-137.544633 85.608773-123.779118 165.115572l913.834948 0c13.764492-79.506798-68.74264-148.288325-123.779118-165.115572C783.947715 791.773961 573.038168 742.836389 573.038168 742.836389L573.038168 742.836389zM573.038168 742.836389" p-id="14820" fill="#707070"></path></svg>