<?xml version="1.0" standalone="no"?><!DOCTYPE svg PUBLIC "-//W3C//DTD SVG 1.1//EN" "http://www.w3.org/Graphics/SVG/1.1/DTD/svg11.dtd"><svg t="1484120051271" class="icon" style="" viewBox="0 0 1024 1024" version="1.1" xmlns="http://www.w3.org/2000/svg" p-id="15583" xmlns:xlink="http://www.w3.org/1999/xlink" width="200" height="200"><defs><style type="text/css"></style></defs><path d="M590.769231 341.333333l0 651.158974 367.589744 0L958.358974 341.333333 590.769231 341.333333zM753.558974 467.364103l-126.030769 0 0-47.261538 126.030769 0L753.558974 467.364103zM932.102564 467.364103l-136.533333 0 0-47.261538 136.533333 0L932.102564 467.364103zM753.558974 567.138462l-126.030769 0 0-47.261538 126.030769 0L753.558974 567.138462zM932.102564 567.138462l-136.533333 0 0-47.261538 136.533333 0L932.102564 567.138462zM753.558974 682.666667l-126.030769 0 0-47.261538 126.030769 0L753.558974 682.666667zM932.102564 682.666667l-136.533333 0 0-47.261538 136.533333 0L932.102564 682.666667zM753.558974 787.692308l-126.030769 0 0-47.261538 126.030769 0L753.558974 787.692308zM932.102564 787.692308l-136.533333 0 0-47.261538 136.533333 0L932.102564 787.692308zM753.558974 897.969231l-126.030769 0 0-52.512821 126.030769 0L753.558974 897.969231zM932.102564 897.969231l-136.533333 0 0-52.512821 136.533333 0L932.102564 897.969231zM65.641026 0l0 1024 582.892308 0L648.533333 0 65.641026 0zM333.45641 204.8 118.153846 204.8 118.153846 126.030769l215.302564 0L333.45641 204.8zM606.523077 204.8 391.220513 204.8 391.220513 126.030769l215.302564 0L606.523077 204.8zM333.45641 362.338462 118.153846 362.338462 118.153846 283.569231l215.302564 0L333.45641 362.338462zM606.523077 362.338462 391.220513 362.338462 391.220513 283.569231l215.302564 0L606.523077 362.338462zM333.45641 530.379487 118.153846 530.379487 118.153846 456.861538l215.302564 0L333.45641 530.379487zM606.523077 530.379487 391.220513 530.379487 391.220513 456.861538l215.302564 0L606.523077 530.379487zM333.45641 703.671795 118.153846 703.671795l0-78.769231 215.302564 0L333.45641 703.671795zM606.523077 703.671795 391.220513 703.671795l0-78.769231 215.302564 0L606.523077 703.671795zM333.45641 871.712821 118.153846 871.712821l0-73.517949 215.302564 0L333.45641 871.712821zM606.523077 871.712821 391.220513 871.712821l0-73.517949 215.302564 0L606.523077 871.712821z" p-id="15584" fill="#707070"></path></svg>