<?xml version="1.0" standalone="no"?><!DOCTYPE svg PUBLIC "-//W3C//DTD SVG 1.1//EN" "http://www.w3.org/Graphics/SVG/1.1/DTD/svg11.dtd"><svg t="1484214620477" class="icon" style="" viewBox="0 0 1024 1024" version="1.1" xmlns="http://www.w3.org/2000/svg" p-id="12975" xmlns:xlink="http://www.w3.org/1999/xlink" width="200" height="200"><defs><style type="text/css"></style></defs><path d="M597.333333 597.333333m-42.666667 0a1 1 0 1 0 85.333333 0 1 1 0 1 0-85.333333 0Z" p-id="12976" fill="#707070"></path><path d="M426.666667 426.666667m-42.666667 0a1 1 0 1 0 85.333333 0 1 1 0 1 0-85.333333 0Z" p-id="12977" fill="#707070"></path><path d="M938.666667 512l-112.298667-84.224L881.493333 298.666667l-139.392-16.810667L725.333333 142.506667l-129.109333 55.125333L512 85.333333l-84.224 112.298667L298.666667 142.506667 281.856 281.856 142.506667 298.666667l55.125333 129.109333L85.333333 512l112.298667 84.224L142.506667 725.333333l139.392 16.810667L298.666667 881.493333l129.109333-55.125333L512 938.666667l84.224-112.298667L725.333333 881.493333l16.810667-139.392L881.493333 725.333333l-55.125333-129.109333L938.666667 512zM426.666667 341.333333c47.146667 0 85.333333 38.186667 85.333333 85.333333 0 47.146667-38.186667 85.333333-85.333333 85.333333-47.146667 0-85.333333-38.186667-85.333333-85.333333C341.333333 379.52 379.52 341.333333 426.666667 341.333333zM597.333333 682.666667c-47.146667 0-85.333333-38.186667-85.333333-85.333333 0-47.146667 38.186667-85.333333 85.333333-85.333333 47.146667 0 85.333333 38.186667 85.333333 85.333333C682.666667 644.48 644.48 682.666667 597.333333 682.666667zM384 682.666667 341.333333 682.666667l298.666667-341.333333 42.666667 0L384 682.666667z" p-id="12978" fill="#707070"></path></svg>