<?xml version="1.0" standalone="no"?><!DOCTYPE svg PUBLIC "-//W3C//DTD SVG 1.1//EN" "http://www.w3.org/Graphics/SVG/1.1/DTD/svg11.dtd"><svg t="1484214939447" class="icon" style="" viewBox="0 0 1024 1024" version="1.1" xmlns="http://www.w3.org/2000/svg" p-id="13795" xmlns:xlink="http://www.w3.org/1999/xlink" width="200" height="200"><defs><style type="text/css"></style></defs><path d="M756.126 84.689l-63.067 27.197-328.717-82.113c1.29-11.414 0.053-23.276-4.807-34.545-14.933-34.63-55.275-50.567-90.085-35.555-34.817 15.012-50.95 55.301-36.016 89.931 2.258 5.237 5.247 9.903 8.539 14.247l-179.63 319.993-63.073 27.199c-52.249 22.529-76.43 82.934-54.010 134.93l189.42 439.281c22.397 51.94 82.937 75.85 135.185 53.317l756.853-326.354c52.218-22.517 76.417-82.969 54.017-134.912l-189.417-439.277c-22.42-51.988-82.976-75.856-135.193-53.338v0zM261.748 81.284c18.181 10.598 40.938 12.89 61.808 3.89 15.018-6.475 26.235-17.733 33.307-31.101l304.654 71.412-567.643 244.769 167.873-288.972zM382.782 739.514l-67.582 29.142-141.535-89.286 54.654 126.751-67.428 29.076-99.542-230.848 66.95-28.87 142.434 90.046-55.072-127.717 67.581-29.14 99.542 230.846zM625.891 634.681l-195.62 84.353-99.543-230.846 192.143-82.854 21.247 49.273-120.288 51.868 15.823 36.7 111.579-48.113 20.304 47.090-111.575 48.111 19.625 45.516 123.765-53.369 22.541 52.273zM914.083 510.414l-70.314 30.317-103.363-127.79 22.125 162.818-70.307 30.315-151.166-208.587 68.108-29.367 80.246 118.678-19.843-144.724 67.843-29.254 91.63 113.551-31.113-139.644 67.745-29.213 48.406 252.897zM914.083 510.414z" p-id="13796" fill="#707070"></path></svg>