<?xml version="1.0" standalone="no"?><!DOCTYPE svg PUBLIC "-//W3C//DTD SVG 1.1//EN" "http://www.w3.org/Graphics/SVG/1.1/DTD/svg11.dtd"><svg t="1484215149482" class="icon" style="" viewBox="0 0 1024 1024" version="1.1" xmlns="http://www.w3.org/2000/svg" p-id="14564" xmlns:xlink="http://www.w3.org/1999/xlink" width="200" height="200"><defs><style type="text/css"></style></defs><path d="M890.964582 64.303514l-690.760676 0c-75.727872 0-137.128755 61.398323-137.128755 137.123021l0 621.146862c0 75.724698 61.400986 137.123021 137.128755 137.123021l690.760676 0c75.727872 0 133.035418-61.398323 133.035418-137.123021l0-621.146862C1024 125.701939 966.692454 64.303514 890.964582 64.303514L890.964582 64.303514zM511.302042 256.685056l320.308284 0 0 63.444984-320.308284 0L511.302042 256.685103zM365.986509 192.216781l55.260877 44.002202c-65.494323 82.887782-100.288205 118.703514-180.109414 188.288307 0 0-8.186778-25.582694-33.770496-51.165286C270.815027 322.176717 317.889126 262.82496 365.986509 192.216781L365.986509 192.216781zM383.38345 474.649293l0 358.157169-64.470996 0 0-283.455817c-17.396941 19.44279-64.47104 60.37504-104.381645 90.05097-3.070054-8.18647-11.256832-25.582694-23.53705-51.165286 66.517709-61.398323 123.825254-120.750182 184.202854-208.754483l49.120768 45.025485L383.38345 474.649293zM896.081306 512.511693l-127.918644 0 0 192.381565c0 53.211955-20.466995 125.866701-105.404928 125.866701-14.326886 2.046566-81.867981-10.233037-81.867981-10.233037s-4.09344-23.536026-8.186778-37.862298c-2.046669-9.209754-2.046669-15.349555-2.046669-19.44279 17.396941 2.046566 45.027328 10.233037 92.101427 10.233037 35.817267 3.069952 44.004045-25.582694 40.93399-68.56151l0-192.381565-255.837287 0 0-64.46829 448.226928 0L896.081364 512.511653z" p-id="14565" fill="#707070"></path></svg>