<?xml version="1.0" standalone="no"?><!DOCTYPE svg PUBLIC "-//W3C//DTD SVG 1.1//EN" "http://www.w3.org/Graphics/SVG/1.1/DTD/svg11.dtd"><svg t="1484119422759" class="icon" style="" viewBox="0 0 1024 1024" version="1.1" xmlns="http://www.w3.org/2000/svg" p-id="2565" xmlns:xlink="http://www.w3.org/1999/xlink" width="200" height="200"><defs><style type="text/css"></style></defs><path d="M863.739505 66.313312 232.479307 66.313312c-14.268982 0-37.132712 8.720615-37.132712 37.132712l0 18.566868-37.132712 0c-15.103999 0-37.133735 21.86703-37.133735 37.132712l0 594.128509c0 20.941961 13.761422 37.132712 37.133735 37.132712 27.377534 0 74.265424 0 74.265424 0l37.930891 167.279864 147.734716-167.279864 222.798319 0-18.566868-37.132712-204.231451 0-18.566868 0L287.000038 891.670136l-35.954887-138.396023-37.132712 0c0 0-28.574802 0-37.132712 0-13.253862 0-18.566868 0-18.566868 0l0-37.133735L158.21286 177.712471c0-12.600993 0-13.791098 0-18.566868l37.132712 0 0 519.861038c0 14.613836 4.296863 37.132712 18.566868 37.132712 0 0 14.341636 0 18.566868 0 51.511187 0 340.379271 0 389.897058 0l143.853315 151.161768 60.378136-151.161768 37.132712 0c20.487613 0 37.132712-13.380752 37.132712-27.993564L900.87324 103.446024C900.872217 88.832188 878.00951 66.313312 863.739505 66.313312zM642.845559 493.287823 342.100984 493.287823c-7.597025 0-16.699334-10.026354-16.699334-18.530029 0-8.613168 9.102309-18.530029 16.699334-18.530029l300.744575 0c7.597025 0 16.698311 9.917884 16.698311 18.530029C659.543869 483.261469 650.442584 493.287823 642.845559 493.287823zM754.896564 400.292825 341.302805 400.292825c-7.252171 0-15.919575-9.93528-15.919575-18.530029 0-8.576329 8.66638-18.530029 15.919575-18.530029L754.896564 363.232768c7.253194 0 15.920598 9.954723 15.920598 18.530029C770.817162 390.356522 762.149758 400.292825 754.896564 400.292825zM754.896564 307.96707 341.302805 307.96707c-7.252171 0-15.919575-10.153244-15.919575-18.856463 0-8.775874 8.66638-18.856463 15.919575-18.856463L754.896564 270.254144c7.253194 0 15.920598 10.081613 15.920598 18.856463C770.817162 297.813826 762.149758 307.96707 754.896564 307.96707zM754.896564 214.972073 341.302805 214.972073c-7.252171 0-15.919575-9.954723-15.919575-18.530029 0-8.576329 8.66638-18.530029 15.919575-18.530029L754.896564 177.912016c7.253194 0 15.920598 9.954723 15.920598 18.530029C770.817162 205.01735 762.149758 214.972073 754.896564 214.972073z" p-id="2566" fill="#707070"></path></svg>