<?xml version="1.0" standalone="no"?><!DOCTYPE svg PUBLIC "-//W3C//DTD SVG 1.1//EN" "http://www.w3.org/Graphics/SVG/1.1/DTD/svg11.dtd"><svg t="1484119872439" class="icon" style="" viewBox="0 0 1024 1024" version="1.1" xmlns="http://www.w3.org/2000/svg" p-id="12926" xmlns:xlink="http://www.w3.org/1999/xlink" width="200" height="200"><defs><style type="text/css"></style></defs><path d="M343.558683 557.481867 177.86392 557.481867c-67.533093 0-122.478496 54.949496-122.478496 122.487705l0 165.69067c0 62.133106 50.544163 112.682385 112.683409 112.682385L343.558683 958.342628c62.138222 0 112.683409-50.54928 112.683409-112.682385L456.242092 670.165276C456.242092 608.031147 405.696905 557.481867 343.558683 557.481867zM397.470547 845.660242c0 29.724998-24.181749 53.911864-53.911864 53.911864L168.068833 899.572106c-29.730115 0-53.911864-24.186865-53.911864-53.911864L114.15697 679.969573c0-35.134195 28.581965-63.717184 63.706951-63.717184L343.558683 616.252389c29.730115 0 53.911864 24.186865 53.911864 53.911864L397.470547 845.660242z" p-id="12927" fill="#707070"></path><path d="M773.839497 557.481867 608.15292 557.481867c-67.542302 0-122.487705 54.949496-122.487705 122.487705l0 165.69067c0 62.133106 50.544163 112.682385 112.682385 112.682385l175.490873 0c62.138222 0 112.692618-50.54928 112.692618-112.682385L886.531092 670.165276C886.531092 608.031147 835.976696 557.481867 773.839497 557.481867zM827.76057 845.660242c0 29.724998-24.190959 53.911864-53.921074 53.911864L598.3476 899.572106c-29.730115 0-53.911864-24.186865-53.911864-53.911864L544.435737 679.969573c0-35.134195 28.581965-63.717184 63.71616-63.717184l165.686577 0c29.730115 0 53.921074 24.186865 53.921074 53.911864L827.759547 845.660242z" p-id="12928" fill="#707070"></path><path d="M343.558683 124.830053 177.86392 124.830053c-67.533093 0-122.478496 54.94438-122.478496 122.482589l0 165.69067c0 62.133106 50.544163 112.683409 112.683409 112.683409L343.558683 525.68672c62.138222 0 112.683409-50.54928 112.683409-112.683409L456.242092 237.512439C456.242092 175.379333 405.696905 124.830053 343.558683 124.830053zM397.470547 413.003312c0 29.724998-24.181749 53.911864-53.911864 53.911864L168.068833 466.915176c-29.730115 0-53.911864-24.186865-53.911864-53.911864L114.15697 247.312642c0-35.130102 28.581965-63.712067 63.706951-63.712067L343.558683 183.600575c29.730115 0 53.911864 24.186865 53.911864 53.911864L397.470547 413.003312z" p-id="12929" fill="#707070"></path><path d="M940.136987 230.232638 829.90235 106.540502c-23.14821-25.980721-56.514131-40.883129-91.51325-40.883129-30.123065 0-59.029418 10.986215-81.413218 30.934546L533.273513 206.830649c-22.403243 19.968797-35.68985 47.545876-37.420261 77.658707-1.731434 30.112832 8.302083 59.038628 28.274974 81.436754L640.886439 496.941026c21.302165 23.899316 51.989071 37.611619 84.186378 37.611619 27.712155 0 54.313-10.110265 74.90806-28.462239l131.009799-116.757191c22.403243-19.963681 35.69906-47.545876 37.430494-77.663824C970.153628 281.556561 960.109878 252.635881 940.136987 230.232638zM891.8881 345.455893 760.877277 462.214107c-9.81453 8.748245-22.527063 13.568017-35.804461 13.568017-15.458063 0-30.150694-6.54302-40.319288-17.944697L567.997362 326.821487c-9.517771-10.679223-14.300704-24.51637-13.468756-38.956244 0.832971-14.443967 7.16519-27.6395 17.84953-37.157271l123.70237-110.23873c11.603269-10.345626 26.630521-16.041348 42.308595-16.041348 18.259876 0 35.631522 7.734148 47.64616 21.216207L896.268874 269.337261c9.517771 10.68434 14.300704 24.521486 13.477966 38.960337C908.914892 322.741565 902.57244 335.937099 891.8881 345.455893z" p-id="12930" fill="#707070"></path></svg>