<?xml version="1.0" standalone="no"?><!DOCTYPE svg PUBLIC "-//W3C//DTD SVG 1.1//EN" "http://www.w3.org/Graphics/SVG/1.1/DTD/svg11.dtd"><svg t="1488592208823" class="icon" style="" viewBox="0 0 1024 1024" version="1.1" xmlns="http://www.w3.org/2000/svg" p-id="2027" xmlns:xlink="http://www.w3.org/1999/xlink" width="200" height="200"><defs><style type="text/css"></style></defs><path d="M943.104 944.128H81.92c-23.7568 0-43.008-19.0464-43.008-42.496V334.848c0-23.4496 16.6912-28.3648 43.008-42.496L512.512 79.872 943.104 292.352c28.8768 15.1552 43.008 19.0464 43.008 42.496v566.6816c0 23.552-19.2512 42.5984-43.008 42.5984zM602.0096 769.7408c0 27.4432 14.1312 41.1648 42.3936 41.1648h81.7152c26.0096 0 41.1648-9.6256 45.3632-28.8768 2.2528-9.1136 4.096-19.5584 5.7344-31.5392-13.9264-5.5296-22.2208-8.8064-24.8832-9.9328-0.9216 12.8-2.3552 23.552-4.4032 32.256-2.2528 9.9328-11.0592 14.9504-26.624 14.9504h-70.656c-15.4624 0-23.2448-6.7584-23.2448-20.2752v-36.864h-25.6v39.1168z m116.736-13.312c-9.8304-11.776-23.1424-24.9856-39.7312-39.8336l-18.1248 13.312c13.9264 14.4384 26.4192 28.5696 37.6832 42.496l20.1728-15.9744z m-174.2848 49.152c11.4688-18.3296 22.528-40.5504 33.28-66.4576l-23.552-9.3184c-9.0112 23.6544-19.7632 44.8512-32.256 63.3856 7.68 4.096 15.1552 8.192 22.528 12.3904zM254.2592 495.104c-17.92 58.4704-44.3392 110.7968-79.0528 157.0816 3.7888 10.1376 7.3728 20.0704 10.752 29.5936 11.776-14.4384 22.9376-30.1056 33.5872-47.104V819.2h25.6V589.1072c13.1072-25.9072 25.1904-54.272 36.352-84.992l-27.2384-9.0112z m116.0192 1.024h-26.9312c0.1024 33.6896-0.4096 63.0784-1.536 88.3712h-73.1136v24.2688h71.7824c-2.1504 75.264-30.5152 138.1376-85.2992 188.6208 7.168 7.0656 13.9264 14.2336 20.1728 21.6064 59.1872-56.4224 89.9072-126.5664 92.16-210.2272H384v157.696c0 15.6672 3.2768 26.4192 9.728 32.256 6.2464 6.2464 17.3056 9.3184 32.9728 9.3184h27.5456c15.6672 0.2048 26.9312-2.4576 33.5872-7.9872 7.168-5.5296 12.0832-15.36 14.848-29.5936 2.4576-14.848 4.608-31.744 6.3488-50.7904-9.4208-3.584-18.6368-7.0656-27.5456-10.6496-1.1264 21.504-2.56 38.5024-4.4032 51.0976-1.536 15.0528-9.728 22.6304-24.576 22.6304h-21.9136c-13.0048 0-19.5584-6.2464-19.5584-18.6368V608.6656h92.16v-24.2688H368.9472c1.1264-25.7024 1.536-55.1936 1.3312-88.2688z m32.9728 22.9376c19.7632 13.9264 38.8096 28.9792 57.1392 45.1584 5.4272-7.2704 11.1616-14.4384 17.5104-21.2992-15.872-13.1072-35.84-27.136-59.904-42.1888l-14.7456 18.3296z m109.2608-297.6768c-39.7312 0-71.9872 31.8464-71.9872 71.0656 0 39.2192 32.256 71.0656 71.9872 71.0656s71.9872-31.8464 71.9872-71.0656c0-39.2192-32.256-71.0656-71.9872-71.0656z m186.368 472.1664v-26.7264h120.1152v-101.9904H698.88v-22.9376H845.824v-21.2992H698.88v-27.8528h-23.552v27.8528H528.384v21.2992h146.944v22.9376H555.2128V674.816h23.552v-7.9872h96.5632v26.9312c-48.0256 0.4096-96.9728 0.6144-146.944 0.6144l2.048 24.2688c123.6992-3.3792 214.7328-5.632 273.3056-6.656 8.8064 8.3968 17.408 16.9984 25.7024 25.9072l20.1728-15.9744c-17.7152-16.5888-38.2976-34.5088-61.8496-53.76l-17.8176 13.6192c4.096 3.584 8.2944 7.0656 12.4928 10.6496-27.648 0.4096-55.3984 0.8192-83.5584 1.1264z m109.3632 40.3456L789.4016 747.52c17.5104 20.5824 31.6416 38.4 42.3936 53.4528l21.1968-15.2576c-17.8176-21.504-32.6656-38.8096-44.7488-51.8144zM698.88 624.9472h96.5632v22.6304h-96.5632v-22.6304z m0-40.8576h96.5632v22.6304h-96.5632v-22.6304z m-120.1152 40.8576h96.5632v22.6304h-96.5632v-22.6304z m0-40.8576h96.5632v22.6304h-96.5632v-22.6304z" fill="#E73349" p-id="2028"></path></svg>