<?xml version="1.0" standalone="no"?><!DOCTYPE svg PUBLIC "-//W3C//DTD SVG 1.1//EN" "http://www.w3.org/Graphics/SVG/1.1/DTD/svg11.dtd"><svg t="1484127850210" class="icon" style="" viewBox="0 0 1024 1024" version="1.1" xmlns="http://www.w3.org/2000/svg" p-id="23700" xmlns:xlink="http://www.w3.org/1999/xlink" width="200" height="200"><defs><style type="text/css"></style></defs><path d="M259.098571 787.771811l-101.168144 0c-6.427386 0-11.627828-5.200442-11.627828-11.626805l0-269.774213c0-6.426363 5.200442-11.626805 11.627828-11.626805l101.168144 0c6.423293 0 11.623735 5.200442 11.623735 11.626805l0 269.774213C270.722306 782.571369 265.521864 787.771811 259.098571 787.771811L259.098571 787.771811zM169.559279 764.517177l77.906347 0L247.465626 517.998621l-77.906347 0L169.559279 764.517177 169.559279 764.517177zM169.559279 764.517177" p-id="23701" fill="#707070"></path><path d="M259.098571 800.051485l-101.168144 0c-13.18223 0-23.907503-10.724249-23.907503-23.906479l0-269.774213c0-13.18223 10.724249-23.906479 23.907503-23.906479l101.168144 0c13.180184 0 23.903409 10.724249 23.903409 23.906479l0 269.774213C283.001981 789.327236 272.278755 800.051485 259.098571 800.051485zM181.838953 752.237503l53.346999 0L235.185952 530.278295l-53.346999 0L181.838953 752.237503z" p-id="23702" fill="#707070"></path><path d="M444.552354 360.650967c-52.891627 0-95.930863-43.035142-95.930863-95.930863 0-52.892651 43.040259-95.930863 95.930863-95.930863 52.894697 0 95.931886 43.038212 95.931886 95.930863C540.48424 317.615824 497.447051 360.650967 444.552354 360.650967L444.552354 360.650967zM444.552354 212.506928c-28.789697 0-52.212152 23.422456-52.212152 52.213175 0 28.789697 23.422456 52.212152 52.212152 52.212152 28.79072 0 52.213175-23.422456 52.213175-52.212152C496.765529 235.928361 473.343073 212.506928 444.552354 212.506928L444.552354 212.506928zM444.552354 192.044898" p-id="23703" fill="#707070"></path><path d="M680.612721 529.254989c-52.895721 0-95.930863-43.038212-95.930863-95.930863 0-52.891627 43.035142-95.930863 95.930863-95.930863 52.892651 0 95.930863 43.039235 95.930863 95.930863C776.543583 486.2178 733.505371 529.254989 680.612721 529.254989L680.612721 529.254989zM680.612721 381.112997c-28.792767 0-52.212152 23.422456-52.212152 52.211129 0 28.789697 23.420409 52.213175 52.212152 52.213175 28.789697 0 52.212152-23.423479 52.212152-52.213175C732.825896 404.535453 709.402417 381.112997 680.612721 381.112997L680.612721 381.112997zM680.612721 360.650967" p-id="23704" fill="#707070"></path><path d="M630.023532 720.317513 393.973398 720.317513c-6.42227 0-11.622712-5.200442-11.622712-11.622712 0-6.427386 5.200442-11.627828 11.622712-11.627828l223.397976 0c-8.150634-46.228881-62.997799-72.947406-74.045413-77.899184L427.6985 619.167788c-3.65218 0-7.105838-1.727341-9.29776-4.657067-46.566572-62.077847-141.498688-62.793138-142.454456-62.793138-6.427386 0-11.627828-5.200442-11.627828-11.628852 0-6.427386 5.200442-11.626805 11.627828-11.626805 4.269233 0 103.052051 0.783853 157.420309 67.449181l112.352881 0c1.474584 0 2.942005 0.283456 4.313236 0.831948 3.749394 1.49812 91.617627 37.493939 91.617627 111.951745C641.65136 715.117071 636.450918 720.317513 630.023532 720.317513L630.023532 720.317513zM630.023532 720.317513" p-id="23705" fill="#707070"></path><path d="M630.023532 732.597187 393.973398 732.597187c-13.180184 0-23.902386-10.723226-23.902386-23.902386 0-13.183254 10.723226-23.907503 23.902386-23.907503l206.748784 0c-13.438057-29.235858-48.210002-47.718815-60.090587-53.339836L427.6985 631.447463c-7.490601 0-14.641465-3.581572-19.129686-9.579169-42.540885-56.71163-131.762953-57.865919-132.659369-57.871035-13.146415 0-23.870664-10.725272-23.870664-23.908526 0-13.18223 10.724249-23.906479 23.907503-23.906479 4.324492 0 104.438631 0.778736 163.107845 67.449181l106.666368 0c3.050476 0 6.036483 0.576121 8.875135 1.710968 4.050246 1.61887 99.335403 40.640606 99.335403 123.353422C653.931035 721.874985 643.205762 732.597187 630.023532 732.597187z" p-id="23706" fill="#707070"></path><path d="M512.006651 855.211782l-84.308151 0c-1.245364 0-2.484587-0.204661-3.675716-0.599657-51.090609-17.020652-165.837003-82.452897-170.697707-85.234243-5.575995-3.189645-7.515161-10.289344-4.325515-15.865339 3.166109-5.575995 10.277064-7.538697 15.861246-4.326539 1.159406 0.661056 114.874307 65.513086 164.760484 82.768075l80.245625 0 341.517187-130.107243c-7.014764-16.693194-26.218128-48.967248-69.620637-48.967248l-185.453782 0c-6.427386 0-11.627828-5.200442-11.627828-11.627828 0-6.42841 5.200442-11.628852 11.627828-11.628852l185.457876 0c60.534701 0 88.991824 49.874921 95.578846 76.252685 1.430582 5.712095-1.635243 11.583826-7.131421 13.682627L516.147972 854.450443C514.820744 854.951863 513.425977 855.211782 512.006651 855.211782L512.006651 855.211782zM512.006651 855.211782" p-id="23707" fill="#707070"></path><path d="M512.006651 867.491457l-84.308151 0c-2.553149 0-5.089925-0.411369-7.538697-1.222851-52.586682-17.519002-168.043251-83.434248-172.932608-86.231967-11.443633-6.54609-15.430434-21.180392-8.886391-32.620955 4.214998-7.423063 12.174274-12.054547 20.753673-12.054547 4.160763 0 8.272407 1.100054 11.890818 3.181459 4.578272 2.609431 111.774713 63.572898 160.736844 81.131809l75.886341 0 326.638315-124.438127c-8.775874-14.291494-24.74866-30.075992-52.482305-30.075992l-185.453782 0c-13.183254 0-23.907503-10.724249-23.907503-23.907503s10.724249-23.908526 23.907503-23.908526l185.457876 0c68.124564 0 100.101859 55.963593 107.4932 85.556585 2.935865 11.718903-3.367701 23.815405-14.665001 28.129664L520.520559 865.925798C517.754562 866.969571 514.903631 867.491457 512.006651 867.491457z" p-id="23708" fill="#707070"></path></svg>