<?xml version="1.0" standalone="no"?><!DOCTYPE svg PUBLIC "-//W3C//DTD SVG 1.1//EN" "http://www.w3.org/Graphics/SVG/1.1/DTD/svg11.dtd"><svg t="1484127787578" class="icon" style="" viewBox="0 0 1024 1024" version="1.1" xmlns="http://www.w3.org/2000/svg" p-id="22926" xmlns:xlink="http://www.w3.org/1999/xlink" width="200" height="200"><defs><style type="text/css"></style></defs><path d="M356.072727 565.527273c-128 0-232.727273-104.727273-232.727272-232.727273s104.727273-232.727273 232.727272-232.727273 232.727273 104.727273 232.727273 232.727273-102.4 232.727273-232.727273 232.727273z m0-409.6c-97.745455 0-176.872727 79.127273-176.872727 176.872727s79.127273 176.872727 176.872727 176.872727 176.872727-79.127273 176.872728-176.872727-79.127273-176.872727-176.872728-176.872727z" p-id="22927" fill="#707070"></path><path d="M681.890909 896c-16.290909 0-27.927273-11.636364-27.927273-27.927273 0-167.563636-132.654545-302.545455-297.890909-302.545454-162.909091 0-297.890909 134.981818-297.890909 302.545454 0 16.290909-11.636364 27.927273-27.927273 27.927273S2.327273 884.363636 2.327273 868.072727c0-197.818182 158.254545-358.4 353.745454-358.4s353.745455 160.581818 353.745455 358.4c0 16.290909-11.636364 27.927273-27.927273 27.927273zM681.890909 563.2c-16.290909 0-27.927273-11.636364-27.927273-27.927273s11.636364-27.927273 27.927273-27.927272c93.090909 0 167.563636-74.472727 167.563636-167.563637s-74.472727-167.563636-167.563636-167.563636c-18.618182 0-37.236364 2.327273-55.854545 9.309091-13.963636 4.654545-30.254545-2.327273-34.909091-16.290909s2.327273-30.254545 16.290909-34.909091c23.272727-9.309091 48.872727-11.636364 74.472727-11.636364 123.345455 0 223.418182 100.072727 223.418182 223.418182 0 121.018182-100.072727 221.090909-223.418182 221.090909z" p-id="22928" fill="#707070"></path><path d="M993.745455 879.709091c-16.290909 0-27.927273-11.636364-27.927273-27.927273 0-158.254545-125.672727-286.254545-281.6-286.254545-18.618182 0-39.563636 2.327273-58.181818 6.981818-16.290909 2.327273-30.254545-6.981818-32.581819-20.945455-2.327273-13.963636 6.981818-30.254545 20.945455-32.581818 23.272727-4.654545 46.545455-6.981818 69.818182-6.981818 186.181818 0 337.454545 153.6 337.454545 342.109091 0 11.636364-13.963636 25.6-27.927272 25.6z" p-id="22929" fill="#707070"></path></svg>