<?xml version="1.0" standalone="no"?><!DOCTYPE svg PUBLIC "-//W3C//DTD SVG 1.1//EN" "http://www.w3.org/Graphics/SVG/1.1/DTD/svg11.dtd"><svg t="1495677468210" class="icon" style="" viewBox="0 0 1024 1024" version="1.1" xmlns="http://www.w3.org/2000/svg" p-id="2519" xmlns:xlink="http://www.w3.org/1999/xlink" width="200" height="200"><defs><style type="text/css"></style></defs><path d="M360.761392 82.608309c0-9.572465-7.832761-17.405227-17.405227-17.405227L84.974306 65.203082c-9.572465 0-17.405227 7.832761-17.405227 17.405227l0 258.381859c0 9.572465 7.832761 17.405227 17.405227 17.405227l258.381859 0c9.572465 0 17.405227-7.832761 17.405227-17.405227L360.761392 82.608309zM329.892903 310.121679c0 9.572465-7.832761 17.405227-17.405227 17.405227L115.842795 327.526906c-9.572465 0-17.405227-7.832761-17.405227-17.405227L98.437568 113.476798c0-9.572465 7.832761-17.405227 17.405227-17.405227l196.644882 0c9.572465 0 17.405227 7.832761 17.405227 17.405227L329.892903 310.121679zM954.442541 82.608309c0-9.572465-7.832761-17.405227-17.405227-17.405227L678.654432 65.203082c-9.572465 0-17.405227 7.832761-17.405227 17.405227l0 258.381859c0 9.572465 7.832761 17.405227 17.405227 17.405227l258.381859 0c9.572465 0 17.405227-7.832761 17.405227-17.405227L954.441518 82.608309zM923.573029 310.121679c0 9.572465-7.832761 17.405227-17.405227 17.405227L709.523944 327.526906c-9.572465 0-17.405227-7.832761-17.405227-17.405227L692.118717 113.476798c0-9.572465 7.832761-17.405227 17.405227-17.405227l196.644882 0c9.572465 0 17.405227 7.832761 17.405227 17.405227L923.574052 310.121679zM67.569079 944.185451c0 9.572465 7.832761 17.405227 17.405227 17.405227l258.381859 0c9.572465 0 17.405227-7.832761 17.405227-17.405227L360.761392 685.804615c0-9.572465-7.832761-17.405227-17.405227-17.405227L84.974306 668.399388c-9.572465 0-17.405227 7.832761-17.405227 17.405227L67.569079 944.185451zM98.438592 716.672081c0-9.572465 7.832761-17.405227 17.405227-17.405227l196.644882 0c9.572465 0 17.405227 7.832761 17.405227 17.405227l0 196.645905c0 9.572465-7.832761 17.405227-17.405227 17.405227L115.842795 930.723212c-9.572465 0-17.405227-7.832761-17.405227-17.405227L98.437568 716.672081zM72.769771 508.953471c0-8.488732 7.832761-15.434244 17.405227-15.434244l848.806692 0c9.572465 0 17.405227 6.945512 17.405227 15.434244 0 8.488732-7.832761 15.434244-17.405227 15.434244L90.173974 524.387716C80.601509 524.387716 72.769771 517.442203 72.769771 508.953471zM495.572078 82.632869c0-9.572465 6.945512-17.405227 15.434244-17.405227 8.488732 0 15.434244 7.832761 15.434244 17.405227l0 258.336832c0 9.572465-6.945512 17.405227-15.434244 17.405227-8.488732 0-15.434244-7.832761-15.434244-17.405227L495.572078 82.632869zM492.595137 746.6349c0-8.488732 7.832761-15.434244 17.405227-15.434244l425.405722 0c9.572465 0 17.405227 6.945512 17.405227 15.434244 0 8.488732-7.832761 15.434244-17.405227 15.434244L510.000364 762.069144C500.427898 762.069144 492.595137 755.123632 492.595137 746.6349zM501.802265 944.526228c0-8.488732 7.832761-15.434244 17.405227-15.434244l406.993514 0c9.572465 0 17.405227 6.945512 17.405227 15.434244 0 8.488732-7.832761 15.433221-17.405227 15.433221L519.207491 959.95945C509.635026 959.960473 501.802265 953.014961 501.802265 944.526228zM501.802265 929.093007" p-id="2520" fill="#707070"></path></svg>