<?xml version="1.0" standalone="no"?><!DOCTYPE svg PUBLIC "-//W3C//DTD SVG 1.1//EN" "http://www.w3.org/Graphics/SVG/1.1/DTD/svg11.dtd"><svg t="1494211284506" class="icon" style="" viewBox="0 0 1024 1024" version="1.1" xmlns="http://www.w3.org/2000/svg" p-id="3838" xmlns:xlink="http://www.w3.org/1999/xlink" width="200" height="200"><defs><style type="text/css"></style></defs><path d="M891.223341 233.485252H315.130579L88.959096 459.656734c-29.024979 29.033412-29.024979 76.097656 0 105.114202L315.175153 790.986993v-0.036141H891.223341c41.046739 0 74.326739-33.281205 74.326739-74.329148V307.8144C965.55008 266.766456 932.27008 233.485252 891.223341 233.485252zM712.169111 577.908254c14.498635 14.517911 14.498635 38.054249 0 52.570955-14.517911 14.49984-38.053045 14.49984-52.57216 0l-65.508292-65.527567-66.615417 66.615417c-14.609468 14.609468-38.298805 14.609468-52.907068 0-14.617901-14.607059-14.617901-38.306033 0-52.914297l66.608188-66.616621-65.519134-65.517929c-14.515501-14.508273-14.515501-38.044612 0-52.552885 14.508273-14.516706 38.044612-14.516706 52.562523 0l65.509496 65.519134 66.034748-66.02752c14.607059-14.615492 38.289167-14.615492 52.897431 0 14.626334 14.608264 14.626334 38.298805 0 52.915501l-66.019087 66.017883 65.528772 65.517929z" p-id="3839" fill="#8a8a8a"></path></svg>