<?xml version="1.0" standalone="no"?><!DOCTYPE svg PUBLIC "-//W3C//DTD SVG 1.1//EN" "http://www.w3.org/Graphics/SVG/1.1/DTD/svg11.dtd"><svg t="1495505179859" class="icon" style="" viewBox="0 0 1024 1024" version="1.1" xmlns="http://www.w3.org/2000/svg" p-id="4993" xmlns:xlink="http://www.w3.org/1999/xlink" width="200" height="200"><defs><style type="text/css"></style></defs><path d="M95.711875 370.490056c17.118889 0 30.699186-13.878079 30.699186-30.996968L126.411061 190.709483c0-34.183544 28.968775-62.163805 63.151295-62.163805l148.784628 0c17.118889 0 30.996968-14.09195 30.996968-31.210839s-13.878079-31.210839-30.996968-31.210839L189.56338 66.124c-68.366064 0-124.549667 56.219419-124.549667 124.585483l0 148.784628C65.012689 356.613 78.592986 370.490056 95.711875 370.490056z" p-id="4994" fill="#47bdff"></path><path d="M834.295404 66.122977 685.510776 66.122977c-17.118889 0-30.996968 14.09195-30.996968 31.210839s13.878079 31.210839 30.996968 31.210839L834.295404 128.544655c34.183544 0 60.618613 27.981285 60.618613 62.163805l0 148.784628c0 17.118889 14.09195 30.996968 31.210839 30.996968s31.210839-13.878079 31.210839-30.996968L957.335694 190.709483C957.335694 122.342396 902.662491 66.122977 834.295404 66.122977z" p-id="4995" fill="#47bdff"></path><path d="M926.124855 655.660934c-17.118889 0-31.210839 13.878079-31.210839 30.996968l0 148.784628c0 34.183544-26.435069 60.582797-60.618613 60.582797L685.510776 896.025327c-17.118889 0-30.996968 14.09195-30.996968 31.210839s13.878079 31.210839 30.996968 31.210839L834.295404 958.447005c68.366064 0 123.040291-54.638411 123.040291-123.004475L957.335694 686.657902C957.335694 669.539013 943.243745 655.660934 926.124855 655.660934z" p-id="4996" fill="#47bdff"></path><path d="M338.346985 896.024304 189.56338 896.024304c-34.183544 0-63.151295-26.399253-63.151295-60.582797L126.412085 686.657902c0-17.118889-13.580297-30.996968-30.699186-30.996968s-30.699186 13.878079-30.699186 30.996968l0 148.784628c0 68.366064 56.183604 123.004475 124.549667 123.004475l148.784628 0c17.118889 0 30.996968-14.09195 30.996968-31.210839S355.465874 896.024304 338.346985 896.024304z" p-id="4997" fill="#47bdff"></path><path d="M927.286308 479.538681 96.572476 479.538681c-17.118889 0-30.996968 13.580297-30.996968 30.699186s13.878079 30.699186 30.996968 30.699186l830.713832 0c17.118889 0 30.996968-13.580297 30.996968-30.699186S944.405197 479.538681 927.286308 479.538681z" p-id="4998" fill="#47bdff"></path></svg>