<?xml version="1.0" standalone="no"?><!DOCTYPE svg PUBLIC "-//W3C//DTD SVG 1.1//EN" "http://www.w3.org/Graphics/SVG/1.1/DTD/svg11.dtd"><svg t="1490842549876" class="icon" style="" viewBox="0 0 1126 1024" version="1.1" xmlns="http://www.w3.org/2000/svg" p-id="3104" xmlns:xlink="http://www.w3.org/1999/xlink" width="219.921875" height="200"><defs><style type="text/css"></style></defs><path d="M1102.079945 537.272293H24.319999a24.330239 24.330239 0 0 1-24.319999-24.319999v-1.8944a24.309759 24.309759 0 0 1 24.319999-24.319998h1077.759946a24.309759 24.309759 0 0 1 24.319999 24.319998v1.8944a24.330239 24.330239 0 0 1-24.319999 24.319999z" fill="#F4BB19" p-id="3105"></path><path d="M1049.420748 358.783982a25.640959 25.640959 0 0 1-25.651199-25.625599V51.199997h-281.087986c-14.131199 0-25.569279-11.468799-25.569279-25.599998s11.438079-25.599999 25.569279-25.599999h306.841585c14.110719 0 25.548799 11.468799 25.548798 25.599999 0 0.0256 0.03072 0.0256 0.03072 0.0256V333.158383a25.656319 25.656319 0 0 1-25.681918 25.625599zM383.718381 51.302397H102.399995v282.649586A24.427519 24.427519 0 0 1 77.951996 358.399982h-2.304A24.427519 24.427519 0 0 1 51.199997 333.951983V24.447999A24.427519 24.427519 0 0 1 75.647996 0h308.070385c14.131199 0 25.574399 11.494399 25.574399 25.651199a25.599999 25.599999 0 0 1-25.574399 25.651198zM75.647996 665.599967h2.304A24.427519 24.427519 0 0 1 102.399995 690.047965v282.649586h281.318386a25.599999 25.599999 0 0 1 25.574399 25.651199c0 14.156799-11.443199 25.651199-25.574399 25.651199h-308.070385A24.427519 24.427519 0 0 1 51.199997 999.55195v-309.498865A24.432639 24.432639 0 0 1 75.647996 665.599967zM742.681563 972.799951h281.087986v-281.958386a25.640959 25.640959 0 0 1 25.651199-25.625598 25.651199 25.651199 0 0 1 25.681918 25.625598v307.532785s-0.03072 0-0.03072 0.0256c0 14.131199-11.438079 25.599999-25.548798 25.599999h-306.841585c-14.131199 0-25.569279-11.468799-25.569279-25.599999s11.438079-25.599999 25.569279-25.599999z" fill="#0095E2" p-id="3106"></path></svg>