<?xml version="1.0" standalone="no"?><!DOCTYPE svg PUBLIC "-//W3C//DTD SVG 1.1//EN" "http://www.w3.org/Graphics/SVG/1.1/DTD/svg11.dtd"><svg t="1492470699769" class="icon" style="" viewBox="0 0 1024 1024" version="1.1" xmlns="http://www.w3.org/2000/svg" p-id="2673" xmlns:xlink="http://www.w3.org/1999/xlink" width="200" height="200"><defs><style type="text/css"></style></defs><path d="M886.868 446.371c-6.868-7.758-13.903-15.908-82.118-50.43-26.322-13.321-54.775-15.084-52.642-57.379 1.559-30.895 23.108-23.097 26.949-53.905 3.846-30.809-30.794-19.254-80.855 0-50.061 19.254-40.506 40.651-55.904 32.952-15.397-7.698-59.379-71.064-186.664-73.38C296.815 241.333 230 340 208.483 333.559c-92.75-27.764-87.831 78.161-76.276 166.715 11.555 88.556 52.693 88.056 53.904 188.667 0.972 80.223-4.475 81.127 107.81 81.855 54.747 0.355 51.08-2.798 53.903-54.906 1.063-19.608 70.274 3.858 134.761 0 61.485-3.672 43.324 25.834 53.904 53.906 4.423 11.725 101.991 13.66 134.764 0 14.423-6.016-2.212-61.025 5.473-84.121 7.687-23.097 32.742-20.229 102.334-50.641 68.829-30.084 96.78-45.469 107.811-53.905C903.24 568.615 901 462.333 886.868 446.371zM832.965 581.131c-48.348 24.616-80.855 40.429-134.763 53.905-53.904 13.477-54.905 28.597-53.904 53.905 1.686 42.109 15.319 68.091-55.168 64.114-55.694-3.132-22.317-64.114-52.642-64.114-50.563 0-145.446-2.87-183.191-16.742-18.37-6.764-35.794-20.317-32.426 16.742 5.054 55.588-5.08 56.247-53.904 53.902-60.799-2.908-50.536-8.515-53.903-53.902-1.687-22.743 1.658-49.683-0.737-58.433-17.32-62.96-48.984-94.176-53.169-157.188-3.176-47.83 1.645-108.391 0.448-109.007-0.192 0.348-0.344 0.744-0.448 1.199 0.199-0.868 0.345-1.251 0.448-1.199 6.232-11.297 58.109 31.213 107.362-25.753 25.714-29.743 96.913-59.92 161.713-61.382 122.391-2.763 165.082 31.059 188.664 61.382 23.585 30.321 33.691 23.582 53.907 0 20.212-23.584 54.324-36.955 59.376-30.216 5.055 6.738-15.16 18.529-6.734 53.903 8.423 35.375 32.057 38.958 60.643 53.905C855 453 869.171 454.965 869.392 497.011 869.683 552.455 881.667 556.334 832.965 581.131zM719.155 419.419c-14.896 0-26.953 12.066-26.953 26.952 0 14.883 12.057 26.952 26.953 26.952 14.896 0 26.953-12.068 26.953-26.952C746.108 431.485 734.052 419.419 719.155 419.419z" p-id="2674" fill="#707070"></path></svg>