<?xml version="1.0" standalone="no"?><!DOCTYPE svg PUBLIC "-//W3C//DTD SVG 1.1//EN" "http://www.w3.org/Graphics/SVG/1.1/DTD/svg11.dtd"><svg t="1492471063519" class="icon" style="" viewBox="0 0 1317 1024" version="1.1" xmlns="http://www.w3.org/2000/svg" p-id="6346" xmlns:xlink="http://www.w3.org/1999/xlink" width="257.2265625" height="200"><defs><style type="text/css"></style></defs><path d="M1260.849347 436.147775C1150.987752 279.344265 957.832338 235.357311 841.621163 226.679774 809.60156 190.159735 661.728792 75.548777 661.728792 75.548777 635.660971 55.462498 618.331429 48.761905 606.804943 48.761905 583.758848 48.761905 583.947362 75.548777 583.947362 75.548777L583.947362 263.91964C373.481423 375.525581 373.481423 434.701234 326.206171 465.316279 319.131843 469.896997 312.003877 471.975541 304.74791 471.975541 263.519525 471.975541 217.973955 404.787073 152.246565 347.076905 117.213867 316.329262 91.877717 304.006095 75.046327 304.006095 54.743479 304.006095 46.811234 321.939783 49.16185 347.076905 52.432652 381.849039 86.330661 457.969908 102.68121 493.15878 105.70123 502.67669 107.519122 518.585212 97.952329 540.219636 80.518973 578.24649 52.067669 644.412045 49.16185 676.108551 46.818158 701.219845 54.750403 719.160422 75.067099 719.160422 91.89849 719.160422 117.220791 706.856194 152.246565 676.108551 217.960107 618.317449 263.505725 551.204752 304.727138 551.204752 311.991735 551.204752 319.126626 553.290186 326.206171 557.877794 373.481423 588.491113 373.481423 647.666766 583.940486 759.265816L583.940486 947.529913C583.940486 947.529913 583.758848 974.363282 606.804943 974.363282 618.324504 974.363282 635.655802 967.657521 661.728792 947.529913 661.728792 947.529913 809.60156 832.972337 841.614238 796.512573 957.832338 787.774766 1151.04139 743.848082 1260.849347 587.044571 1275.010097 566.78953 1288.326827 537.030354 1288.326827 511.597036L1288.326827 511.474766C1288.326827 486.168878 1275.017021 456.282273 1260.849347 436.147775L1260.849347 436.147775ZM179.807086 590.166694C162.294199 608.160651 144.186319 626.772836 124.160244 644.384495 111.4368 655.550425 101.411645 662.896796 93.809762 667.720329 98.803322 647.923356 111.822507 611.826946 136.598284 557.776189L136.721067 557.521325 136.835218 557.257845C151.62563 523.804823 148.449963 497.005895 143.186554 480.410263L142.368427 477.847815 141.233786 475.405912C113.566037 415.839349 99.187273 376.562269 93.83741 355.485798 101.437586 360.316216 111.450648 367.655697 124.15332 378.800967 144.267605 396.45912 162.422199 415.112631 179.9818 433.154809 215.663128 469.816057 247.25031 502.266836 283.701297 511.590146 247.196672 520.920347 215.555852 553.431396 179.807086 590.166694L179.807086 590.166694ZM1245.849649 511.597036C1245.849649 525.070546 1237.680421 546.152185 1225.998238 562.85459 1181.952293 625.758535 1118.475215 674.675785 1037.336478 708.249356 961.326275 739.697883 887.206522 750.669219 838.417798 754.342405L821.081332 755.646015 809.636133 768.676957C788.271299 793.001262 691.572492 870.816651 635.695592 914.104442 632.296789 916.73405 629.209332 918.981359 626.426295 920.904919L626.426295 733.878994 603.912923 721.938125C541.435611 688.808853 493.167518 657.999214 456.351549 627.756139 426.196504 602.98754 409.906517 583.68136 395.527753 566.64143 381.820148 550.397099 368.866694 535.053414 349.375049 522.427163 341.679787 517.441755 333.619493 513.823676 325.266968 511.597036 333.619493 509.370392 341.679787 505.750591 349.368125 500.766905 368.873618 488.140654 381.820148 472.795248 395.527753 456.550917 409.906517 439.510986 426.196504 420.204807 456.351549 395.431044 493.167518 365.186243 541.442536 334.376604 603.919848 301.247332L626.433219 289.313353 626.433219 102.185828C629.202408 104.097334 632.276017 106.330863 635.660971 108.939805 691.591509 152.294756 788.257451 230.123925 809.622284 254.496446L821.081332 267.560107 838.452419 268.858548C918.840418 274.858257 1117.542888 305.531855 1226.005163 460.344647L1226.032859 460.384256 1226.058801 460.425587C1237.524773 476.711244 1245.849649 498.183797 1245.849649 511.474766L1245.849649 511.597036 1245.849649 511.597036ZM1067.436178 430.254836C1023.385015 430.254836 987.629324 466.58717 987.629324 511.562591 987.629324 556.383032 1023.385015 592.877236 1067.436178 592.877236 1111.489048 592.877236 1147.244739 556.383032 1147.244739 511.562591 1147.244739 466.58717 1111.489048 430.254836 1067.436178 430.254836L1067.436178 430.254836ZM1067.436178 550.584808C1046.856606 550.584808 1030.106502 533.081639 1030.106502 511.562591 1030.106502 490.050438 1046.849682 472.547269 1067.436178 472.547269 1088.017506 472.547269 1104.765854 490.050438 1104.765854 511.562591 1104.765854 533.081639 1088.017506 550.584808 1067.436178 550.584808L1067.436178 550.584808Z" p-id="6347" fill="#707070"></path></svg>