<?xml version="1.0" standalone="no"?><!DOCTYPE svg PUBLIC "-//W3C//DTD SVG 1.1//EN" "http://www.w3.org/Graphics/SVG/1.1/DTD/svg11.dtd"><svg t="1492471207967" class="icon" style="" viewBox="0 0 1024 1024" version="1.1" xmlns="http://www.w3.org/2000/svg" p-id="7907" xmlns:xlink="http://www.w3.org/1999/xlink" width="200" height="200"><defs><style type="text/css"></style></defs><path d="M370.891 872.256c-151.003-33.276-169.03-159.165-170.954-197.975l-32.85-26.614c-12.679 13.066-26.374 17.897-36.96 19.433-41.68 5.885-79.88-30.778-84.08-34.98l-3.554-3.553-1.592-4.756c-10.623-31.87-8.735-58.466 5.627-79.102 12.16-17.452 30.278-26.058 44.973-30.278-2.202-40.976 23.745-72.254 25.06-73.79l4.071-4.812 6.015-1.814c40.05-12.122 71.032-8.217 92.057 11.605 29.316 27.669 26.67 76.566 23.023 101.292l26.188 18.507c66.665-26.244 124.612-26.355 172.398-0.333 82.73 45.066 101.57 151.54 102.329 156.037l-41.976 7.089 20.988-3.535-20.988 3.572c-0.148-0.907-16.379-90.89-80.915-125.889-38.347-20.747-87.522-18.507-146.154 6.737l-10.956 4.701-68.404-48.305 3.368-14.029c3.368-14.25 9.106-58.687-8.143-74.918-9.902-9.272-28.113-7.607-43.734-3.665-5.83 9.106-16.582 30.075-9.272 52.044l8.995 27.058-28.502 0.944c-6.922 0.314-27.058 3.85-35.553 16.23-5.608 8.144-6.163 20.322-1.666 36.146 9.44 8.106 29.224 21.931 44.344 19.674 2.85-0.426 11.512-1.722 20.359-18.045l12.215-22.524 86.264 69.885-0.593 10.845c-0.259 5.367-4.664 132.829 135.568 165.05h336.135L947.05 591.941c-0.574-5.812-2.592-14.418-9.05-20.23-9.05-8.124-25.985-10.252-49.138-6.273l-111.934 82.599-25.263-34.276 119.67-88.3 4.645-0.944c40.032-8.013 70.68-2.665 90.984 15.954 26.04 23.875 23.005 58.558 22.579 62.426l-0.796 7.292-256.866 262.585-360.99-0.518z m-30.59-325.427c-32.77 3.974-32.169 6.005-32.169 6.005 67.201-99.94 143.656-152.188 227.2-155.297 135.382-5.275 235.934 121.077 240.172 126.462l-33.462 26.337c-0.888-1.13-88.521-110.38-198.938-110.38-2.128 0-4.238 0.037-6.385 0.13-60.31 2.309-117.492 37.57-170.367 104.91-3.15 4.012 6.718-2.141-26.052 1.833z m-32.687-91.696c-2.61-15.51 2.924-53.006 6.478-73.975l-17.953-19.322c-50.433 20.47-91.464-2.906-107.214-19.766l-2.887-3.09-1.48-3.962c-15.436-41.197-14.048-72.938 4.182-94.37 17.397-20.432 45.529-24.504 64.591-24.504 2.943-20.228 11.068-35.997 24.264-47.046 22.116-18.489 49.693-15.916 58.502-14.528 36.35 0.555 52.266 16.212 59.206 29.371 16.009 30.371-2.61 71.94-15.472 94.481l42.104 47.86c57.207-9.086 115.802 13.474 118.467 14.51l-15.49 39.644c-0.574-0.204-57.948-22.154-105.66-10.216l-12.567 3.146-80.138-91.057 9.31-13.677c14.935-21.95 27.557-53.968 21.802-64.832-2.203-4.183-11.012-6.663-23.524-6.663l-4.515-0.481c-0.019 0-15.547-2.72-24.838 5.238-9.105 7.773-10.475 24.226-10.03 36.645l0.962 26.928-26.41-5.293c-11.53-2.221-38.589-3.183-48.139 8.106-6.755 7.995-6.163 24.652 1.629 47.194 8.106 6.645 32.518 21.987 67.7 1.87l14.659-8.384 54.597 58.78-1.906 10.475c-4.979 27.391-9.458 62-8.2 69.866l-42.03 7.052z" p-id="7908" fill="#707070"></path></svg>