<?xml version="1.0" standalone="no"?><!DOCTYPE svg PUBLIC "-//W3C//DTD SVG 1.1//EN" "http://www.w3.org/Graphics/SVG/1.1/DTD/svg11.dtd"><svg t="1492471263493" class="icon" style="" viewBox="0 0 1024 1024" version="1.1" xmlns="http://www.w3.org/2000/svg" p-id="8786" xmlns:xlink="http://www.w3.org/1999/xlink" width="200" height="200"><defs><style type="text/css"></style></defs><path d="M971.508736 356.58752c-21.317632-56.516608-64.470016-104.28928-124.790784-138.151936-57.96864-32.541696-127.100928-49.742848-199.921664-49.742848-38.588416 0-77.167616 4.92032-114.668544 14.62272l-1.330176 0.344064-268.032 109.275136c-90.12224 23.656448-162.301952 76.8-198.172672 145.961984-13.034496 25.129984-20.692992 51.388416-22.762496 78.043136-0.850944 10.960896-0.731136 21.878784 0.321536 32.709632l0 121.966592c0 3.603456 2.992128 14.687232 3.876864 17.026048 23.3472 61.714432 76.251136 111.392768 148.968448 139.884544 41.765888 16.364544 87.279616 24.625152 133.518336 24.625152 32.17408 0 64.700416-4.001792 96.534528-12.059648l295.9872-35.767296 1.335296-0.160768 1.301504-0.334848c39.64416-10.179584 76.594176-25.3184 109.822976-44.993536 32.35328-19.156992 60.479488-42.177536 83.596288-68.422656 38.31296-43.497472 60.956672-94.174208 65.614848-145.65888 1.308672-2.697216 2.06336-5.71392 2.06336-8.912896l0-76.040192c0-1.061888-0.105472-2.097152-0.262144-3.116032 0.24064-2.22208 0.456704-4.446208 0.62976-6.673408C987.629568 418.936832 983.044096 387.168256 971.508736 356.58752zM167.19872 382.244864c30.662656-22.715392 66.720768-39.540736 107.172864-50.006016l1.330176-0.344064 268.000256-109.261824c33.738752-8.612864 68.416512-12.9792 103.095296-12.9792 65.813504 0 128.013312 15.387648 179.871744 44.499968 51.810304 29.084672 88.64256 69.505024 106.517504 116.890624 18.671616 49.502208 14.952448 101.86752-10.758144 151.437312-17.364992 33.47968-44.643328 64.584704-78.886912 89.954304-36.077568 26.727424-78.42304 46.577664-125.887488 59.014144l-295.441408 36.516864-1.292288 0.333824c-28.817408 7.455744-58.451968 11.236352-88.085504 11.236352-0.002048 0-0.006144 0-0.008192 0-55.49056-0.002048-107.910144-12.962816-151.589888-37.482496-43.460608-24.3968-74.33728-58.249216-89.2928-97.897472-4.514816-11.969536-7.448576-24.143872-8.830976-36.404224l0-11.999232c0-2.106368-0.319488-4.137984-0.910336-6.049792 0.283648-24.15104 6.549504-48.422912 18.750464-71.948288C115.518464 429.671424 138.426368 403.560448 167.19872 382.244864zM886.356992 664.338432c-41.1648 46.736384-102.057984 82.388992-171.583488 100.486144l-295.952384 35.7632-1.334272 0.160768-1.301504 0.334848c-69.710848 17.900544-142.95552 14.103552-206.24384-10.692608-61.7984-24.213504-106.40384-65.49504-125.601792-116.241408-0.346112-0.914432-0.770048-1.774592-1.226752-2.608128l0-20.084736c19.838976 25.950208 46.164992 48.402432 78.073856 66.31424 49.789952 27.95008 109.140992 42.724352 171.638784 42.7264 0.004096 0 0.004096 0 0.008192 0 32.643072 0 65.283072-4.10624 97.036288-12.205056l294.14912-36.35712 1.325056-0.162816 1.293312-0.334848c88.082432-22.78912 161.540096-69.679104 207.809536-131.447808C925.451264 609.660928 909.201408 638.40256 886.356992 664.338432z" p-id="8787" fill="#707070"></path><path d="M709.248 475.317248c10.841088 0 21.67296-1.370112 32.19456-4.072448 30.584832-7.85408 55.293952-26.164224 67.791872-50.235392 9.821184-18.915328 11.205632-39.96672 3.90144-59.278336-13.014016-34.402304-51.724288-57.517056-96.324608-57.517056-10.841088 0-21.67296 1.370112-32.19456 4.072448-30.584832 7.85408-55.293952 26.164224-67.791872 50.236416-9.821184 18.915328-11.205632 39.96672-3.900416 59.277312C625.938432 452.202496 664.64768 475.317248 709.248 475.317248zM653.175808 377.396224c7.032832-13.545472 22.593536-24.549376 41.627648-29.436928 7.195648-1.84832 14.600192-2.78528 22.006784-2.78528 27.242496 0 51.098624 12.768256 58.01472 31.049728 4.009984 10.599424 1.15712 19.941376-1.942528 25.911296-7.032832 13.545472-22.593536 24.549376-41.627648 29.436928-7.195648 1.84832-14.600192 2.78528-22.006784 2.78528-27.242496 0-51.0976-12.768256-58.013696-31.050752C647.22432 392.707072 650.077184 383.366144 653.175808 377.396224z" p-id="8788" fill="#707070"></path></svg>