<?xml version="1.0" standalone="no"?><!DOCTYPE svg PUBLIC "-//W3C//DTD SVG 1.1//EN" "http://www.w3.org/Graphics/SVG/1.1/DTD/svg11.dtd"><svg t="1492471122700" class="icon" style="" viewBox="0 0 1024 1024" version="1.1" xmlns="http://www.w3.org/2000/svg" p-id="7131" xmlns:xlink="http://www.w3.org/1999/xlink" width="200" height="200"><defs><style type="text/css"></style></defs><path d="M900.608 706.56l-126.464-73.216 104.448-54.784c12.8-6.656 17.92-23.04 11.264-35.84-6.656-12.8-23.04-17.92-35.84-11.264l-134.144 70.656-156.16-90.112 158.72-91.648 134.144 70.656c4.096 2.048 8.192 3.072 12.288 3.072 9.728 0 18.944-5.12 23.552-14.336 6.656-12.8 2.048-29.184-11.264-35.84l-104.448-54.784 126.464-73.216c12.8-7.168 16.896-23.552 9.728-36.352-7.168-12.8-23.552-16.896-36.352-9.728l-126.464 73.216 4.608-117.76c0.512-14.848-10.752-27.136-25.6-27.648-14.336-0.512-27.136 10.752-27.648 25.6l-6.144 151.04-158.72 91.648 0-191.488 128-80.896c12.288-7.68 15.872-24.064 8.192-36.352-7.68-12.288-24.064-15.872-36.352-8.192l-99.84 62.976L536.576 76.8c0-14.848-11.776-26.624-26.624-26.624-14.848 0-26.624 11.776-26.624 26.624l0 135.168-99.84-62.976c-12.288-7.68-28.672-4.096-36.352 8.192-7.68 12.288-4.096 28.672 8.192 36.352l128 80.896L483.328 465.92l-165.888-95.744-6.144-151.04c-0.512-14.848-12.8-26.112-27.648-25.6-14.848 0.512-26.112 12.8-25.6 27.648l4.608 117.76-117.248-67.584c-12.8-7.168-28.672-3.072-36.352 9.728-7.168 12.8-3.072 28.672 9.728 36.352l117.248 67.584-104.448 54.784c-12.8 6.656-17.92 23.04-11.264 35.84 4.608 9.216 13.824 14.336 23.552 14.336 4.096 0 8.192-1.024 12.288-3.072l134.144-70.656 165.888 95.744-163.328 94.208-134.144-70.656c-12.8-6.656-28.672-2.048-35.84 11.264-6.656 12.8-2.048 29.184 11.264 35.84l104.448 54.784-117.248 67.584c-12.8 7.168-16.896 23.552-9.728 36.352 5.12 8.704 13.824 13.312 23.04 13.312 4.608 0 9.216-1.024 13.312-3.584l117.248-67.584-4.608 117.76c-0.512 14.848 10.752 27.136 25.6 27.648 0.512 0 0.512 0 1.024 0 14.336 0 26.112-11.264 26.624-25.6l6.144-151.04 163.328-94.208 0 180.224-128 80.896c-12.288 7.68-15.872 24.064-8.192 36.352 7.68 12.288 24.064 15.872 36.352 8.192l99.84-62.976L483.328 947.2c0 14.848 11.776 26.624 26.624 26.624 14.848 0 26.624-11.776 26.624-26.624l0-146.432 99.84 62.976c4.608 2.56 9.216 4.096 14.336 4.096 8.704 0 17.408-4.608 22.528-12.288 7.68-12.288 4.096-28.672-8.192-36.352l-128-80.896L537.088 558.08l156.16 90.112 6.144 151.04c0.512 14.336 12.288 25.6 26.624 25.6 0.512 0 0.512 0 1.024 0 14.848-0.512 26.112-12.8 25.6-27.648l-4.608-117.76 126.464 73.216c4.096 2.56 8.704 3.584 13.312 3.584 9.216 0 17.92-4.608 23.04-13.312C918.016 730.112 913.408 713.728 900.608 706.56z" p-id="7132" fill="#707070"></path></svg>