<?xml version="1.0" standalone="no"?><!DOCTYPE svg PUBLIC "-//W3C//DTD SVG 1.1//EN" "http://www.w3.org/Graphics/SVG/1.1/DTD/svg11.dtd"><svg t="1495007438055" class="icon" style="" viewBox="0 0 1024 1024" version="1.1" xmlns="http://www.w3.org/2000/svg" p-id="5767" xmlns:xlink="http://www.w3.org/1999/xlink" width="200" height="200"><defs><style type="text/css"></style></defs><path d="M865.738533 298.756291 377.372813 298.756291c-7.769964 0-15.249309 2.957355-20.918425 8.272407l-217.606063 204.006324c-12.888542 12.0832-12.888542 32.54216 0 44.626383l217.606063 204.006324c5.669116 5.315052 13.148461 8.272407 20.918425 8.272407l488.36572 0c17.274432 0 31.278377-14.003945 31.278377-31.278377L897.016911 330.034668C897.016911 312.760237 883.012965 298.756291 865.738533 298.756291zM720.244858 662.994969l-22.50455 22.503527c-6.213515 6.213515-16.290011 6.213515-22.503527 0L564.045353 574.307068l-100.513228 100.513228c-6.109138 6.107091-16.009625 6.107091-22.118763 0l-22.115694-22.116717c-6.109138-6.109138-6.109138-16.009625 0-22.118763l100.511181-100.513228L416.437527 426.699242c-6.215562-6.213515-6.215562-16.287965 0-22.503527l22.503527-22.505573c6.215562-6.213515 16.290011-6.213515 22.505573 0L564.817949 485.063511l108.829638-108.829638c6.107091-6.109138 16.010649-6.109138 22.11774 0l22.116717 22.11774c6.109138 6.107091 6.109138 16.009625 0 22.11774L609.05343 529.297968l111.191428 111.191428C726.458373 646.702911 726.458373 656.779408 720.244858 662.994969z" p-id="5768" fill="#999999"></path></svg>