<?xml version="1.0" standalone="no"?><!DOCTYPE svg PUBLIC "-//W3C//DTD SVG 1.1//EN" "http://www.w3.org/Graphics/SVG/1.1/DTD/svg11.dtd"><svg t="1494989401108" class="icon" style="" viewBox="0 0 1166 1024" version="1.1" xmlns="http://www.w3.org/2000/svg" p-id="4996" xmlns:xlink="http://www.w3.org/1999/xlink" width="227.734375" height="200"><defs><style type="text/css"></style></defs><path d="M372.877241 135.356321 1118.631724 135.356321C1144.406863 135.356321 1165.241379 115.143112 1165.241379 90.237549 1165.241379 65.331984 1144.406863 45.118775 1118.631724 45.118775L372.877241 45.118775C347.148712 45.118775 326.267586 65.331984 326.267586 90.237549 326.267586 115.143112 347.148712 135.356321 372.877241 135.356321L372.877241 135.356321ZM1118.631724 466.881225 372.877241 466.881225C347.148712 466.881225 326.267586 487.094438 326.267586 512 326.267586 536.905562 347.148712 557.118775 372.877241 557.118775L1118.631724 557.118775C1144.406863 557.118775 1165.241379 536.905562 1165.241379 512 1165.241379 487.094438 1144.406863 466.881225 1118.631724 466.881225L1118.631724 466.881225ZM1118.631724 888.643678 372.877241 888.643678C347.148712 888.643678 326.267586 908.81177 326.267586 933.762452 326.267586 958.713134 347.148712 978.881226 372.877241 978.881226L1118.631724 978.881226C1144.406863 978.881226 1165.241379 958.713134 1165.241379 933.762452 1165.241379 908.81177 1144.406863 888.643678 1118.631724 888.643678L1118.631724 888.643678ZM0 90.237549C0 40.400727 41.735707 0 93.21931 0 144.702914 0 186.438621 40.400727 186.438621 90.237549 186.438621 140.074369 144.702914 180.475095 93.21931 180.475095 41.735707 180.475095 0 140.074369 0 90.237549L0 90.237549ZM0 512C0 462.163177 41.735707 421.762451 93.21931 421.762451 144.702914 421.762451 186.438621 462.163177 186.438621 512 186.438621 561.836823 144.702914 602.237549 93.21931 602.237549 41.735707 602.237549 0 561.836823 0 512L0 512ZM0 933.762452C0 883.92563 41.735707 843.524905 93.21931 843.524905 144.702914 843.524905 186.438621 883.92563 186.438621 933.762452 186.438621 983.599274 144.702914 1024 93.21931 1024 41.735707 1024 0 983.599274 0 933.762452L0 933.762452Z" p-id="4997" fill="#707070"></path></svg>