<?xml version="1.0" standalone="no"?><!DOCTYPE svg PUBLIC "-//W3C//DTD SVG 1.1//EN" "http://www.w3.org/Graphics/SVG/1.1/DTD/svg11.dtd"><svg t="1494989378824" class="icon" style="" viewBox="0 0 1024 1024" version="1.1" xmlns="http://www.w3.org/2000/svg" p-id="3714" xmlns:xlink="http://www.w3.org/1999/xlink" width="200" height="200"><defs><style type="text/css"></style></defs><path d="M916.073942 220.74659L803.252387 107.925035c-41.373293-41.373293-108.444874-41.381479-149.826354 0.001023L540.602432 220.750683c-41.373293 41.373293-41.382503 108.444874-0.001024 149.826354l112.821555 112.821555c41.373293 41.373293 108.444874 41.381479 149.826354-0.001024L916.072919 370.572944c41.373293-41.374316 41.382503-108.444874 0.001023-149.826354z m-38.629809 134.411269l-89.607854 89.607854c-32.866548 32.866548-86.136799 32.861432-118.997208 0.001023l-89.60683-89.60683c-32.866548-32.866548-32.860409-86.136799 0.001023-118.997208l89.607854-89.607854c32.866548-32.866548 86.136799-32.861432 118.997208-0.001023l89.60683 89.60683c32.865525 32.866548 32.858362 86.136799-0.001023 118.997208zM342.393137 575.662949H182.837188c-58.510602 0-105.943914 47.421033-105.943914 105.944937v159.555949c0 58.510602 47.421033 105.943914 105.943914 105.943914h159.555949c58.510602 0 105.943914-47.421033 105.943914-105.943914V681.607886c0-58.512648-47.420009-105.944937-105.943914-105.944937zM182.835142 481.382679h159.553902c58.509579 0 105.941867-47.421033 105.941868-105.943914V215.883839c0-58.510602-47.420009-105.943914-105.941868-105.943914h-159.553902c-58.509579 0-105.941867 47.421033-105.941868 105.943914v159.555949c0 58.510602 47.420009 105.942891 105.941868 105.942891zM808.115138 575.662949H648.559189c-58.510602 0-105.941867 47.421033-105.941868 105.944937v159.555949c0 58.510602 47.420009 105.943914 105.941868 105.943914h159.553902c58.510602 0 105.941867-47.421033 105.941868-105.943914V681.607886c0.002047-58.512648-47.418986-105.944937-105.939821-105.944937z" p-id="3715" fill="#707070"></path></svg>