<?xml version="1.0" standalone="no"?><!DOCTYPE svg PUBLIC "-//W3C//DTD SVG 1.1//EN" "http://www.w3.org/Graphics/SVG/1.1/DTD/svg11.dtd"><svg t="1484272725430" class="icon" style="" viewBox="0 0 1974 1024" version="1.1" xmlns="http://www.w3.org/2000/svg" p-id="4329" xmlns:xlink="http://www.w3.org/1999/xlink" width="385.546875" height="200"><defs><style type="text/css"></style></defs><path d="M1104.716272 379.303021c-14.593459-18.956839-29.186918-43.006373-43.776802-72.241555-11.660109 23.379208-22.249484 43.469346-31.703771 60.218575-9.502551 16.802856-22.299535 36.839368-38.326599 60.168524l162.006344 0C1135.390422 414.345913 1119.309731 398.317061 1104.716272 379.303021z" p-id="4330" fill="#707070"></path><path d="M1867.844784 63.407543l-1762.612431 0c-58.114643 0-105.230566 47.119498-105.230566 105.232354L0.001788 852.637683c0 58.109281 47.115923 105.228779 105.230566 105.228779l1762.612431 0c58.112856 0 105.230566-47.119498 105.230566-105.228779L1973.075351 168.639897C1973.075351 110.527041 1925.95764 63.407543 1867.844784 63.407543zM1369.593632 256.76015l65.663416 78.767856c-14.593459 10.222929-26.255356 21.169811-35.042892 32.82992-24.819963-34.989266-45.93436-62.015051-63.461169-80.977253C1348.422033 278.648552 1359.367128 268.42026 1369.593632 256.76015zM647.262096 718.579494c-39.411635-14.54162-76.251002-36.428234-110.525253-65.663416-34.324302-29.185131-66.024498-70.037521-95.209629-122.548233l0 153.220595c0 27.694324 0.71859 53.232877 2.157558 76.613873l-50.303103 0c2.877936-23.380995 4.368743-48.919549 4.368743-76.613873l0-159.795159c-35.042892 56.879455-69.315356 99.935879-102.867441 129.12101-33.603924 29.235182-63.509433 52.562551-89.764789 70.032158-5.857762-13.099077-18.958627-26.255356-39.409847-39.359796 24.818176-8.783961 56.521947-29.181556 95.211417-61.298248 38.641206-32.113118 72.604425-71.472914 101.789556-118.231329l-109.44558 0c-32.113118 0-56.877667 0.774004-74.400901 2.209397l0-39.40806c21.888401 1.487231 48.145545 2.207609 78.767856 2.207609l140.11973 0L397.750412 381.514205l-91.922347 0c-35.042892 0-63.509433 0.71859-85.397834 2.157558L220.430231 344.315542c21.888401 1.435393 48.864135 2.153983 80.977253 2.153983l96.34114 0c0-43.775015-0.770429-75.119491-2.209397-94.129956l48.143757 0c-1.43718 17.521446-2.157558 48.915974-2.157558 94.129956l96.289302 0c27.694324 0 54.001519-0.71859 78.819694-2.153983l0 39.356221c-24.816388-1.438968-51.12537-2.157558-78.819694-2.157558l-96.289302 0 0 87.555392 129.122797 0c32.113118 0 62.016838-0.720378 89.764789-2.207609l0 39.40806c-27.746163-1.43718-56.931293-2.209397-87.557179-2.209397L467.784357 504.060651c26.255356 39.411635 55.079404 73.323015 86.473931 101.785981 31.344476 28.468328 75.480574 50.714237 132.413654 66.798502C667.713317 681.382619 654.558826 696.69288 647.262096 718.579494zM723.872394 628.868331c20.399382-1.438968 41.569193-3.646577 63.457594-6.578139 21.888401-2.929775 46.704789-6.578139 74.452739-10.945094-1.492594 10.226504-2.931562 22.608779-4.366955 37.204025-21.890189 4.366955-39.77093 8.011745-53.644011 10.941519s-35.402187 8.737485-64.587318 17.525021C734.817488 660.979662 729.680104 644.898971 723.872394 628.868331zM923.080975 582.878557l-8.787536 120.392462c0 30.622311-8.73391 48.145545-26.255356 52.508925-17.523234 4.424156-41.567405 8.787536-72.241555 13.154491-4.366955-20.451221-10.228292-37.198663-17.525021-50.354941 30.677725 0 50.714237-0.359295 60.220363-1.076098 9.456075-0.772216 15.673132-7.656025 18.602906-20.812303l6.576352-135.700937L754.49828 560.990156c1.43718-27.694324 2.566904-58.010966 3.287282-90.840886 0.71859-32.835283 1.129724-63.816889 1.129724-93.003807l43.77859 0c-2.979826 16.032427-5.137384 36.839368-6.578139 62.377921-1.490807 25.534978-2.209397 53.590385-2.209397 84.269897l54.720109 0 15.310262-192.634017-59.087064 0c-23.327369 0-45.936148 0.766854-67.824549 2.207609l0-39.409847c21.888401 1.438968 44.498967 2.157558 67.824549 2.157558l102.865654 0c-2.926199 13.154491-5.087333 32.113118-6.522726 56.931293l-15.363888 170.747404 41.619244 0C925.960699 535.455178 924.518156 555.184233 923.080975 582.878557zM1214.161852 744.83485c-18.960414-1.43718-34.992841-2.153983-48.145545-2.153983l-168.534432 0c-26.255356 0-45.267609 0.716803-56.927718 2.153983l0-39.356221c17.517871 1.440756 37.248714 2.159346 59.137115 2.159346l98.500486 0c11.660109-32.064854 21.117972-64.896562 28.414702-98.500486l21.886614-100.661619c11.663685 4.37053 27.74795 8.735698 48.197383 13.102653-7.348568 8.787536-13.154491 20.812303-17.523234 36.124353-4.366955 15.308474-11.304389 39.406272-20.808728 72.241555-9.506126 32.831708-17.163939 58.731344-22.969861 77.691758l30.625886 0c10.226504 0 26.255356-0.71859 48.145545-2.159346L1214.160065 744.83485zM955.914471 530.367845c11.660109-4.420581 23.325582-8.01532 34.992841-10.945094 5.802348 20.447646 12.069456 43.776802 18.597544 70.033946 6.578139 26.255356 12.791621 50.356729 18.597544 72.243343-13.099077 1.438968-25.534978 5.087333-37.196875 10.945094-4.37053-27.744375-9.09678-51.073532-14.234164-70.087572C971.585815 583.650774 964.64838 559.551188 955.914471 530.367845zM1034.684114 515.003957c13.150916-2.876148 26.255356-5.087333 39.409847-6.526301l8.732122 56.879455c2.929775 19.015828 6.578139 43.058212 10.945094 72.24513l-34.989266 8.735698c-5.857762-32.064854-10.222929-56.52016-13.154491-73.324803C1042.697646 556.265694 1039.052856 536.890571 1034.684114 515.003957zM1214.161852 471.228943c-20.451221-11.665472-40.128437-25.486715-59.090639-41.57098l0 37.204025c-18.960414-1.440756-45.93436-2.159346-80.977253-2.159346s-63.457594 0.71859-85.347783 2.159346L988.746178 431.869147c-8.785749 11.660109-21.169811 26.975734-37.250501 45.93436-13.102653-13.100865-26.977521-23.327369-41.569193-30.622311 23.330944-16.032427 41.209898-32.113118 53.644011-48.145545 12.384062-16.082478 23.329157-32.831708 32.833495-50.354941 9.454288-17.521446 17.523234-33.553873 24.047747-48.147332 6.578139-14.591672 12.073031-30.67415 16.439986-48.195596 18.960414 4.420581 38.637631 8.787536 59.090639 13.154491l-10.945094 17.519659c23.329157 43.776802 47.428742 75.893495 72.24513 96.289302 24.764549 20.447646 53.951468 36.483648 87.553604 48.145545C1231.683299 439.162301 1221.458582 453.757548 1214.161852 471.228943zM1373.957012 755.779944c-10.222929-13.099077-21.168023-24.814601-32.831708-34.985691 17.523234-17.523234 26.255356-35.76327 26.255356-54.725472L1367.38066 469.069597l-19.677217 0c-20.447646 0-40.848815 0.720378-61.300036 2.159346l0-41.57098c18.960414 1.490807 39.409847 2.209397 61.300036 2.209397l63.457594 0c-1.438968 27.694324-2.157558 56.879455-2.157558 87.553604l0 120.390675c13.102653-16.082478 24.764549-31.396315 34.989266-45.991562 7.29673 16.087841 16.080691 30.625886 26.307195 43.780377-16.080691 18.956839-31.033445 36.842943-44.908314 53.644011C1411.520332 707.99727 1394.41002 729.524588 1373.957012 755.779944zM1807.368804 738.312124c-32.116693-1.490807-60.581446-2.209397-85.347783-2.209397L1529.388791 736.102728c-35.042892 0-64.226235 0.71859-87.553604 2.209397L1441.835187 696.69288c23.329157 1.489019 45.93436 2.207609 67.824549 2.207609l0-170.743829c0-30.622311-0.71859-56.162652-2.157558-76.610298l45.930785 0c-1.435393 18.962202-2.153983 44.550806-2.153983 76.610298l0 170.743829 65.663416 0L1616.942396 337.735615l-39.406272 0c-33.607499 0-65.666991 0.71859-96.292877 2.159346l0-41.57098c30.625886 1.490807 62.685378 2.209397 96.292877 2.209397l137.908546 0c29.183343 0 56.157289-0.71859 80.977253-2.209397l0 41.57098c-24.819963-1.440756-51.793909-2.159346-80.977253-2.159346l-54.725472 0 0 142.277288 50.354941 0c24.766337 0 48.864135-0.720378 72.193291-2.209397l0 41.619244c-21.890189-1.43718-45.93436-2.209397-72.193291-2.209397l-50.354941 0 0 181.688923L1722.021021 698.902277c24.766337 0 53.23109-0.71859 85.347783-2.207609L1807.368804 738.312124z" p-id="4331" fill="#707070"></path></svg>