<?xml version="1.0" standalone="no"?><!DOCTYPE svg PUBLIC "-//W3C//DTD SVG 1.1//EN" "http://www.w3.org/Graphics/SVG/1.1/DTD/svg11.dtd"><svg t="1484272746668" class="icon" style="" viewBox="0 0 1974 1024" version="1.1" xmlns="http://www.w3.org/2000/svg" p-id="5337" xmlns:xlink="http://www.w3.org/1999/xlink" width="385.546875" height="200"><defs><style type="text/css"></style></defs><path d="M1867.844784 63.437931l-1762.612431 0c-58.114643 0-105.230566 47.115923-105.230566 105.232354l0 683.995999c0 58.116431 47.115923 105.232354 105.230566 105.232354l1762.612431 0c58.112856 0 105.230566-47.115923 105.230566-105.232354L1973.075351 168.670285C1973.075351 110.555641 1925.95764 63.437931 1867.844784 63.437931zM1350.990725 256.763726l65.663416 78.821482c-14.589884 10.226504-26.255356 21.169811-35.042892 32.833495-24.816388-35.042892-45.93436-62.018626-63.457594-81.029091C1329.820915 278.652127 1340.766009 268.479249 1350.990725 256.763726zM621.00674 726.29272c-10.945094 13.824818-26.618226 21.479055-47.067659 22.969861l-293.288487 0c-52.564338 1.442543-77.382514-21.168023-74.452739-67.878175l0-188.209861c0-14.591672-0.71859-41.617456-2.157558-80.975465l52.510712 0c-1.43718 20.447646-2.157558 40.847028-2.157558 61.241047L541.107373 473.440127l0-137.85492L298.17204 335.585207c-33.603924 0-71.524752 0.720378-113.862587 2.159346l0-43.780377c42.339622 1.490807 79.540072 2.209397 111.651402 2.209397L589.25113 296.173573c-1.438968 26.257144-2.159346 51.797485-2.159346 76.612085l0 80.97904c0 30.625886 0.722165 60.57787 2.159346 89.763001L541.107373 543.527699l0-32.82992-288.921532 0 0 146.642456c-2.929775 34.992841 15.312049 51.793909 54.721896 50.354941L523.585927 707.695176c24.818176 1.438968 41.9267-2.209397 51.432827-10.945094 9.504339-8.783961 16.441773-33.552086 20.808728-74.452739 16.03064 10.228292 34.270676 18.291875 54.721896 24.101373C641.815468 685.804987 631.951834 712.421426 621.00674 726.29272zM705.273062 628.873694c20.399382-1.438968 41.569193-3.648365 63.457594-6.578139 21.886614-2.872573 46.706577-6.576352 74.452739-10.945094-1.492594 10.226504-2.929775 22.662405-4.366955 37.202238-21.891976 4.420581-39.77093 8.068946-53.645799 10.946882-13.873081 2.979826-35.402187 8.785749-64.587318 17.521446C716.216369 660.988599 711.080773 644.956172 705.273062 628.873694zM904.481644 582.88392l-8.787536 120.390675c0 30.675937-8.73391 48.195596-26.255356 52.567913-17.521446 4.36338-41.569193 8.732122-72.241555 13.099077-4.368743-20.451221-10.226504-37.202238-17.523234-50.303103 30.67415 0 50.714237-0.411134 60.220363-1.131511 9.450713-0.71859 15.671344-7.656025 18.597544-20.758677l6.578139-135.747413-129.174636 0c1.438968-27.696112 2.570479-57.962703 3.28907-90.796198 0.720378-32.828133 1.129724-63.865153 1.129724-93.050283l43.77859 0c-2.981613 16.080691-5.137384 36.889419-6.578139 62.376134-1.489019 25.536766-2.207609 53.644011-2.207609 84.26811l54.720109 0 15.310262-192.63223-59.088851 0c-23.329157 0-45.936148 0.772216-67.822761 2.207609l0-39.411635c21.886614 1.490807 44.495392 2.209397 67.822761 2.209397l102.867441 0c-2.929775 13.106228-5.087333 32.116693-6.522726 56.88303l-15.365675 170.742041 41.617456 0C907.356005 535.514167 905.920612 555.191384 904.481644 582.88392zM1195.558946 744.893839c-18.956839-1.487231-34.992841-2.205822-48.145545-2.205822l-168.534432 0c-26.255356 0-45.264034 0.71859-56.933081 2.205822l0-39.409847c17.525021 1.490807 37.254077 2.209397 59.142478 2.209397l98.498699 0c11.663685-32.113118 21.117972-64.944825 28.414702-98.498699l21.886614-100.709883c11.663685 4.368743 27.74795 8.737485 48.200958 13.150916-7.348568 8.737485-13.158066 20.758677-17.526809 36.122565-4.36338 15.310262-11.300814 39.358009-20.808728 72.193291-9.506126 32.831708-17.160363 58.783182-22.966286 77.740021l30.622311 0c10.226504 0 26.255356-0.71859 48.145545-2.209397L1195.555371 744.893839zM937.313352 530.374995c11.663685-4.366955 23.327369-8.01532 34.989266-10.941519 5.807711 20.447646 12.076606 43.773227 18.604694 70.032158 6.574564 26.255356 12.791621 50.351366 18.597544 72.241555-13.102653 1.490807-25.534978 5.139171-37.202238 10.945094-4.365167-27.696112-9.093205-51.075319-14.232376-70.035733C952.984696 583.656136 946.049049 559.561914 937.313352 530.374995zM1016.082995 515.061159c13.150916-2.927987 26.255356-5.083758 39.409847-6.574564l8.735698 56.931293c2.929775 18.956839 6.574564 43.058212 10.941519 72.193291l-34.989266 8.787536c-5.854186-32.116693-10.222929-56.525522-13.150916-73.32659C1024.098315 556.322895 1020.44995 536.953135 1016.082995 515.061159zM1195.558946 471.284356c-20.447646-11.663685-40.128437-25.538553-59.090639-41.619244l0 37.252289c-18.956839-1.438968-45.930785-2.209397-80.977253-2.209397-35.042892 0-63.457594 0.772216-85.345995 2.209397l0-35.042892c-8.787536 11.713736-21.169811 27.025785-37.252289 45.987986-13.102653-13.154491-26.975734-23.327369-41.567405-30.677725 23.325582-16.028852 41.20811-32.061279 53.642224-48.143757 12.382275-16.028852 23.327369-32.833495 32.831708-50.353154 9.457863-17.523234 17.521446-33.553873 24.047747-48.145545 6.578139-14.593459 12.076606-30.624099 16.443561-48.14912 18.956839 4.366955 38.637631 8.737485 59.090639 13.106228l-10.945094 17.517871c23.325582 43.77859 47.425167 75.891707 72.241555 96.342928 24.766337 20.447646 53.951468 36.480073 87.557179 48.145545C1213.078605 439.173026 1202.855676 453.764698 1195.558946 471.284356zM1355.359468 755.842508c-10.226504-13.154491-21.168023-24.821751-32.835283-35.046467 17.523234-17.521446 26.257144-35.709644 26.257144-54.720109L1348.781329 469.07496l-19.680792 0c-20.447646 0-40.848815 0.772216-61.300036 2.209397l0-41.619244c18.960414 1.490807 39.413422 2.209397 61.300036 2.209397l63.457594 0c-1.438968 27.744375-2.157558 56.929506-2.157558 87.557179l0 120.383525c13.102653-16.03064 24.764549-31.340901 34.989266-45.986199 7.29673 16.082478 16.084266 30.67415 26.307195 43.77859-16.080691 19.010465-31.033445 36.892994-44.904739 53.644011C1392.921001 708.052683 1375.807113 729.581789 1355.359468 755.842508zM1788.767685 738.317487c-32.113118-1.489019-60.57787-2.207609-85.347783-2.207609L1510.787672 736.109878c-35.042892 0-64.226235 0.71859-87.553604 2.207609l0-41.569193c23.329157 1.438968 45.93436 2.161133 67.824549 2.161133l0-170.745616c0-30.624099-0.71859-56.160864-2.157558-76.60851l45.93436 0c-1.438968 19.010465-2.157558 44.545443-2.157558 76.60851l0 170.745616 65.663416 0L1598.341277 337.742766l-39.409847 0c-33.603924 0-65.663416 0.768641-96.285727 2.209397l0-41.619244c30.622311 1.487231 62.681803 2.209397 96.285727 2.209397l137.908546 0c29.186918 0 56.160864-0.722165 80.980828-2.209397l0 41.619244c-24.819963-1.442543-51.793909-2.209397-80.980828-2.209397l-54.718321 0 0 142.279076 50.354941 0c24.764549 0 48.864135-0.723953 72.189716-2.159346l0 41.57098c-21.886614-1.444331-45.93436-2.209397-72.189716-2.209397l-50.354941 0L1642.121654 698.909427l61.296461 0c24.769912 0 53.234665-0.722165 85.347783-2.161133L1788.765897 738.317487z" p-id="5338" fill="#707070"></path><path d="M1086.115153 379.363797c-14.593459-18.960414-29.183343-43.058212-43.776802-72.24513-11.663685 23.329157-22.245909 43.421082-31.700196 60.170312-9.506126 16.801068-22.299535 36.891206-38.333749 60.218575l162.011706 0C1116.792878 414.353063 1100.708612 398.322424 1086.115153 379.363797z" p-id="5339" fill="#707070"></path></svg>