<?xml version="1.0" standalone="no"?><!DOCTYPE svg PUBLIC "-//W3C//DTD SVG 1.1//EN" "http://www.w3.org/Graphics/SVG/1.1/DTD/svg11.dtd"><svg t="1486711705221" class="icon" style="" viewBox="0 0 1000 1000" version="1.1" xmlns="http://www.w3.org/2000/svg" p-id="5440" xmlns:xlink="http://www.w3.org/1999/xlink" width="200" height="200"><defs><style type="text/css"></style></defs><path d="M824.516 303.818H693.14C656.104 280.749 652.285 207 613.568 207c-45.854 0-185.748 0-230.979 0-45.236 0-38.851 96.818-99.994 96.818H175.481c-36.697 0-66.45 29.748-66.45 66.451v404.713c0 36.696 29.753 66.45 66.45 66.45h649.034c36.697 0 66.453-29.754 66.453-66.45V370.269C890.969 333.566 861.213 303.818 824.516 303.818zM500.007 777.247c-113.027 0-204.65-91.609-204.65-204.636 0-113.014 91.623-204.614 204.65-204.614 113.014 0 204.614 91.6 204.614 204.614C704.621 685.638 613.021 777.247 500.007 777.247zM797.458 441.642l19.014 58.568-49.819-36.179-49.818 36.179 19.021-58.568-49.819-36.193h61.581l19.036-58.56 19.021 58.56h61.597L797.458 441.642zM500.007 428.496c-79.604 0-144.121 64.527-144.121 144.115 0 79.604 64.518 144.129 144.121 144.129 79.587 0 144.092-64.525 144.092-144.129C644.099 493.023 579.594 428.496 500.007 428.496z" p-id="5441" fill="#3399ff"></path></svg>