<?xml version="1.0" standalone="no"?><!DOCTYPE svg PUBLIC "-//W3C//DTD SVG 1.1//EN" "http://www.w3.org/Graphics/SVG/1.1/DTD/svg11.dtd"><svg t="1487904803645" class="icon" style="" viewBox="0 0 1102 1024" version="1.1" xmlns="http://www.w3.org/2000/svg" p-id="4773" xmlns:xlink="http://www.w3.org/1999/xlink" width="215.234375" height="200"><defs><style type="text/css"></style></defs><path d="M-2.5e-05 145.470139-2.5e-05 145.470139-2.5e-05 145.470139-2.5e-05 145.470139-2.5e-05 145.470139-2.5e-05 145.470139-2.5e-05 145.470139-2.5e-05 145.470139Z" p-id="4774" fill="#3399ff"></path><path d="M882.061266 611.834776c-131.670855 80.373539-303.56276 38.794561-383.937322-92.883457-80.365352-131.667785-38.773072-303.554574 92.89983-383.941416 131.667785-80.360236 303.553551-38.766932 383.927089 92.895737C1055.308029 359.579565 1013.723935 531.459191 882.061266 611.834776zM891.955614 278.564413c-52.400441-85.827761-164.448376-112.933095-250.272044-60.545958-85.829807 52.388161-112.949468 164.43712-60.559261 250.26795 52.392254 85.839017 164.444283 112.939235 250.27102 60.552098C917.22309 476.445226 944.341728 364.397291 891.955614 278.564413z" p-id="4775" fill="#3399ff"></path><path d="M900.889077 555.959188c6.930853 4.152577 12.957103 9.770528 17.59268 16.785292L1026.538798 737.51008c18.541285 28.061103 7.779174 67.851341-24.040533 88.87619l0 0c-31.81766 21.021779-72.640414 15.31787-91.180676-12.746302L803.261572 648.876414c-18.541285-28.061103-7.77815-67.851341 24.039509-88.875167l0 0C851.165605 544.233122 880.094471 543.501458 900.889077 555.959188" p-id="4776" fill="#3399ff"></path><path d="M438.287137 222.741014c0 32.04074-25.973558 58.014298-58.014298 58.014298L197.688407 280.755312c-32.04074 0-58.014298-25.973558-58.014298-58.014298l0 0c0-32.04074 25.973558-58.014298 58.014298-58.014298l182.583408 0C412.312556 164.726715 438.287137 190.700273 438.287137 222.741014L438.287137 222.741014z" p-id="4777" fill="#3399ff"></path><path d="M499.685509 559.229674c0 32.04074-25.973558 58.014298-58.014298 58.014298L197.688407 617.243973c-32.04074 0-58.014298-25.974581-58.014298-58.014298l0 0c0-32.04074 25.973558-58.013275 58.014298-58.013275l243.98178 0C473.710927 501.216399 499.685509 527.189957 499.685509 559.229674L499.685509 559.229674z" p-id="4778" fill="#3399ff"></path><path d="M888.541864 895.720382c0 32.039717-25.974581 58.013275-58.014298 58.013275L197.688407 953.733657c-32.04074 0-58.014298-25.974581-58.014298-58.013275l0 0c0-32.04074 25.973558-58.013275 58.014298-58.013275l632.838136 0C862.567283 837.706083 888.541864 863.679641 888.541864 895.720382L888.541864 895.720382z" p-id="4779" fill="#3399ff"></path></svg>