<?xml version="1.0" standalone="no"?><!DOCTYPE svg PUBLIC "-//W3C//DTD SVG 1.1//EN" "http://www.w3.org/Graphics/SVG/1.1/DTD/svg11.dtd"><svg t="1488247533496" class="icon" style="" viewBox="0 0 1024 1024" version="1.1" xmlns="http://www.w3.org/2000/svg" p-id="2588" xmlns:xlink="http://www.w3.org/1999/xlink" width="200" height="200"><defs><style type="text/css"></style></defs><path d="M325.935407 364.638815c0 120.680296 97.28 218.529185 217.27763 218.529185s217.296593-97.848889 217.296593-218.529185c0-120.699259-97.298963-218.529185-217.296593-218.529185-119.99763 0-217.27763 97.829926-217.27763 218.529185z" fill="#E3EFFF" p-id="2589"></path><path d="M754.251852 621.89037c3.735704-6.238815 1.251556-13.748148-5.006222-17.483851a476.956444 476.956444 0 0 0-179.806815-58.690371c89.903407-32.464593 154.851556-117.380741 154.851555-218.529185 0-127.374222-103.651556-231.025778-231.025777-231.025778s-229.774222 103.651556-229.774223 231.025778c0 104.884148 69.935407 193.554963 166.096593 222.283852-186.083556 32.464593-337.180444 172.335407-380.871111 362.154666-1.251556 6.238815 2.503111 13.729185 8.741926 14.980741h2.503111c6.238815 0 11.226074-3.735704 12.47763-9.993481C119.883852 710.561185 300.961185 566.935704 512 566.935704c78.65837 0 156.103111 19.986963 223.516444 58.69037 7.528296 3.754667 14.999704 1.270519 18.735408-3.735704zM288.464593 327.186963c0-113.645037 92.406519-206.051556 204.8-206.051556 112.393481 0 206.051556 92.406519 206.051555 206.051556 0 113.626074-92.406519 206.032593-204.8 206.032593s-206.051556-92.406519-206.051555-206.032593z m674.341926 452.058074h-111.141926v-111.141926c0-7.509333-5.006222-12.47763-12.47763-12.47763-7.509333 0-12.47763 4.987259-12.47763 12.47763v111.141926h-111.141926c-7.509333 0-12.47763 4.987259-12.477629 12.47763s4.987259 12.496593 12.477629 12.496592h111.141926v111.122963c0 7.509333 4.987259 12.496593 12.47763 12.496593s12.47763-5.006222 12.47763-12.496593v-111.122963h111.141926c7.49037 0 12.47763-5.006222 12.477629-12.496592s-6.219852-12.47763-12.477629-12.47763z" fill="#58AEFF" p-id="2590"></path></svg>